<svg xmlns="http://www.w3.org/2000/svg" x="0px" y="0px" width="250px" height="250px">
<path fill="#004C93" d="M125,249.5C56.35,249.5,0.5,193.65,0.5,125S56.35,0.5,125,0.5c68.65,0,124.5,55.85,124.5,124.5
	S193.65,249.5,125,249.5z M125,2.02C57.19,2.02,2.02,57.19,2.02,125S57.19,247.98,125,247.98c67.81,0,122.98-55.17,122.98-122.98
	S192.81,2.02,125,2.02z M125,220.74c-52.83,0-95.81-42.98-95.81-95.81S72.17,29.12,125,29.12s95.81,42.98,95.81,95.81
	S177.83,220.74,125,220.74z M125,30.29c-52.18,0-94.64,42.46-94.64,94.64s42.45,94.64,94.64,94.64s94.64-42.45,94.64-94.64
	S177.18,30.29,125,30.29z M216.48,124.9c0-50.52-40.95-91.48-91.48-91.48c-50.52,0-91.47,40.96-91.47,91.48
	c0,50.52,40.95,91.48,91.47,91.48C175.52,216.38,216.48,175.42,216.48,124.9 M46.94,195.56c1.92-1.61,1.41-3.73-0.02-5.42
	c-0.93-1.11-2.68-2.53-4.15-1.3c-1.55,1.31,0,3.69,1.22,6.28c1.23,2.61,2.22,5.47-0.48,7.74c-2.95,2.48-6.7,0.88-8.89-1.72
	c-2.53-3.01-3.54-6.87-0.21-9.67l2.58,3.07c-1.65,1.56-1.06,3.16,0.21,4.67c0.85,1.01,2.25,1.82,3.47,0.8
	c1.11-0.93,0.67-1.74-1.44-6.13c-0.62-1.27-2.67-5.06,0.6-7.8c2.64-2.22,6.37-1.81,9.66,2.1c2.68,3.19,3.62,7.5,0.03,10.44
	L46.94,195.56 M41.09,177.44l-2.13-3.55l-13.16,7.88l-2.9-4.84l-2.99,1.79l7.92,13.22l2.99-1.79l-2.9-4.84L41.09,177.44z
	 M20.44,168.23l-0.02-0.05l5.47-4.84l1.87,4.5L20.44,168.23z M37.06,171.29l-1.61-3.87l-4.43,0.24l-2.7-6.5l3.33-2.92L30,154.28
	l-14.68,13.71l1.63,3.92L37.06,171.29z M29.5,151.11l-1.01-4.01l-14.87,3.74l-1.38-5.47l-3.37,0.85l3.76,14.95l3.37-0.85l-1.38-5.47
	L29.5,151.11z M26.96,140.22l-1.23-14.23l-3.47,0.3l0.88,10.11l-4.6,0.4l-0.79-9.08l-3.2,0.28l0.79,9.09l-4.02,0.35l-0.86-9.9
	L7,127.83l1.22,14.02L26.96,140.22z M26.16,86.98l-10.33-3.14l-1.12,3.69l10.33,3.14c2.47,0.75,3.35,1.94,2.55,4.57
	c-0.91,2.99-2.84,2.91-4.66,2.36l-10.33-3.14l-1.12,3.69l10.33,3.14c4.51,1.37,7.48-0.6,8.85-5.12
	C32.02,91.69,30.65,88.35,26.16,86.98 M33.91,85.35l1.68-3.19L25.3,76.73l0.02-0.04l13.69-1.04l1.8-3.41l-15.37-8.1l-1.68,3.19
	l10.31,5.43l-0.02,0.04l-13.72,1.05l-1.79,3.39L33.91,85.35z M43.29,68.93l2.24-3.14l-14.13-10.1l-2.24,3.14L43.29,68.93z
	 M44.68,40.3l-2.69,2.93l6.32,11.18l-0.03,0.04l-11.64-5.39l-2.69,2.93l16.65,7.56l2.94-3.2L44.68,40.3z M59.13,50.7l10.49-8.2
	l-1.98-2.53l-7.45,5.83l-2.62-3.35l6.7-5.24l-1.83-2.34l-6.69,5.24l-2.29-2.93l7.3-5.71l-1.98-2.53l-10.33,8.08L59.13,50.7z
	 M71.23,30.54l-2.3-4.32l3.73-1.98c1.52-0.81,2.68-0.6,3.47,0.88c0.82,1.55,0.34,2.63-1.18,3.43L71.23,30.54 M72.29,40.75l3.41-1.81
	l-3.19-5.99l3.41-1.81c1.72-0.91,2.72-0.54,3.81,0.95c0.82,1.13,1.57,2.64,2.49,3.39l3.41-1.81c-1.06-0.54-2-2.35-2.58-3.28
	c-0.93-1.49-2.26-2.85-4.16-2.39l-0.02-0.04c1.35-1.6,1.37-3.34,0.41-5.15c-1.23-2.32-4.01-3.3-6.78-1.82l-8.35,4.44L72.29,40.75z
	 M89.36,26.26l-3.55,1.15c1.27,4.09,5.31,4.78,9,3.59c4.54-1.46,6.21-4.51,5.24-7.54c-1.21-3.75-5.2-3.31-6.51-3.22
	c-4.53,0.28-5.38,0.38-5.79-0.89c-0.45-1.39,0.75-2.31,1.92-2.69c1.75-0.57,3.35-0.52,4.1,1.44l3.55-1.15
	c-1.23-3.82-4.92-4.29-8.4-3.17c-3.02,0.97-5.72,3.63-4.63,7.01c1,3.1,3.81,3.24,6.5,3.09c2.66-0.14,5.26-0.65,5.84,1.13
	c0.55,1.69-1.3,2.69-2.59,3.11C92.08,28.76,90.07,28.46,89.36,26.26 M104.69,27.94l3.79-0.71l-3.21-17.07l-3.79,0.71L104.69,27.94z
	 M116.52,26.21l3.85-0.25l-0.92-14.13l5.25-0.34l-0.21-3.2l-14.34,0.94l0.21,3.2l5.25-0.34L116.52,26.21z M132.81,26.16l3.84,0.38
	l0.65-6.63l7.52-10.02l-4.28-0.42l-4.73,6.43l-3.42-7.23l-4.33-0.42l5.4,11.19L132.81,26.16z M173.15,35.16
	c-3.02-1.62-2.77-4.81-1.4-7.36c1.44-2.68,3.96-4.64,6.98-3.01c3.02,1.62,2.77,4.8,1.33,7.48
	C178.69,34.83,176.17,36.79,173.15,35.16 M180.25,21.97c-4.74-2.55-9.42-0.51-11.86,4.03c-2.37,4.41-1.49,9.45,3.24,11.99
	c4.74,2.54,9.42,0.51,11.79-3.9C185.87,29.55,184.99,24.52,180.25,21.97 M180.81,42.91l3.03,2.32l4.37-5.69l5.77,4.43l1.81-2.36
	l-5.77-4.43l2.44-3.18l6.66,5.11l1.96-2.55l-9.69-7.43L180.81,42.91z M205.8,67.2l1.86,3.06l9.93-6.05l0.02,0.04l-6.17,12.22
	l1.99,3.26l14.83-9.03l-1.86-3.06l-9.95,6.06l-0.03-0.04l6.18-12.25l-1.97-3.24L205.8,67.2z M215.26,83.68L219.97,96l3-1.15
	l-3.35-8.75l3.98-1.52l3.01,7.86l2.77-1.06l-3.01-7.86l3.47-1.33l3.28,8.57l3-1.15l-4.64-12.13L215.26,83.68z M241.55,115.48
	l-0.66-3.69l-12.28-0.69l-0.01-0.05l11.26-5.03l-0.63-3.52l-12.17-0.89l-0.01-0.05l11.16-4.79l-0.67-3.76l-16.29,7.58l0.68,3.81
	l12.15,0.77l0.01,0.05l-11.12,4.98l0.67,3.74L241.55,115.48z M223.28,136.96l-0.54,3.78l6.6,0.93l9.69,7.88l0.6-4.22l-6.23-4.96
	l7.36-3.06l0.61-4.26l-11.4,4.85L223.28,136.96z M221.9,156.11c1.05-3.26,4.23-3.6,6.98-2.71c2.89,0.93,5.28,3.06,4.22,6.32
	c-1.05,3.26-4.22,3.6-7.12,2.67C223.23,161.5,220.85,159.38,221.9,156.11 M236.16,160.71c1.65-5.12-1.2-9.36-6.11-10.94
	c-4.77-1.54-9.56,0.24-11.21,5.36c-1.65,5.12,1.2,9.36,5.97,10.9C229.73,167.6,234.51,165.83,236.16,160.71 M222.39,172.87l4.32,2.3
	l-1.97,3.69c-0.8,1.5-1.88,1.98-3.36,1.19c-1.54-0.82-1.75-1.98-0.96-3.49L222.39,172.87 M215.78,165.03l-1.79,3.37l5.99,3.19
	l-1.79,3.37c-0.9,1.7-1.94,1.94-3.68,1.32c-1.31-0.48-2.77-1.31-3.96-1.42l-1.79,3.37c1.18-0.14,2.97,0.84,3.97,1.29
	c1.6,0.72,3.47,1.1,4.77-0.32l0.04,0.02c-0.21,2.06,0.75,3.51,2.55,4.47c2.32,1.24,5.16,0.51,6.62-2.24l4.4-8.27L215.78,165.03z
	 M207.68,179.78l-2.34,3.02l4.42,3.42l0.41,3.09l-9.37-0.64l-2.93,3.79l12.87,0.55l1.27,9.56l2.92-3.77l-1.54-9.77l5.7,4.41
	l2.34-3.02L207.68,179.78z M102.57,239.85l3.64-16.63l-2.69-0.59c-0.91,2.46-3.25,2.8-5.59,2.23l-0.56,2.54l4.18,0.92l-2.36,10.79
	L102.57,239.85 M120.08,230.53c-0.12,1.68-1.12,3.09-2.96,2.96c-1.77-0.12-2.48-1.78-2.37-3.38c0.11-1.53,1.16-3.04,2.81-2.92
	C119.29,227.3,120.2,228.95,120.08,230.53 M111.11,236.9c0.18,3.01,2.24,4.89,5.18,5.09c4.83,0.34,7-4.27,7.29-8.42
	c0.3-4.29-0.77-8.88-5.92-9.24c-3.54-0.25-6.14,2.33-6.38,5.8c-0.09,1.34,0.22,2.77,1.05,3.88c0.9,1.13,2.33,1.92,3.78,2.02
	c1.65,0.11,2.93-0.36,3.97-1.63l0.05,0.05c-0.23,1.89-1.11,5.12-3.61,4.94c-1.19-0.08-1.99-1.11-2.13-2.27L111.11,236.9z
	 M134.11,234.81l-4.46,0.33l3.95-6.22l0.07-0.01L134.11,234.81z M134.61,241.58l3.28-0.24l-0.29-3.93l2.26-0.17l-0.21-2.84
	l-2.26,0.17l-0.76-10.21l-3.08,0.23l-6.64,10.45l0.24,3.15l7.18-0.53L134.61,241.58z M150.21,236.93c-1.61,0.36-3.19-0.46-3.57-2.17
	c-0.38-1.71,0.72-2.93,2.35-3.29c1.57-0.35,3.09,0.43,3.44,2.02C152.8,235.15,151.82,236.57,150.21,236.93 M148.46,229.22
	c-1.35,0.3-2.71-0.17-3.03-1.61c-0.33-1.47,0.67-2.57,2.02-2.87c2.09-0.47,2.82,0.89,3.01,1.75
	C150.78,227.9,149.84,228.91,148.46,229.22 M146.89,222.19c-2.71,0.61-5.26,2.8-4.59,5.79c0.37,1.64,1.49,2.78,3.21,2.87l0.01,0.05
	c-1.84,0.91-2.69,2.67-2.22,4.78c0.8,3.59,4.27,4.5,7.48,3.79c3.09-0.69,5.83-3.12,5.05-6.62c-0.47-2.09-1.95-3.35-4.02-3.36
	l-0.01-0.05c1.45-0.87,2.01-2.39,1.64-4.03C153.08,223.8,151.02,221.26,146.89,222.19"/>
<path fill="#FFFFFF" d="M194.95,91.7l2.16,5.07l-3.05,2.85l0.75,1.76l9.99-9.79l-0.75-1.76l-13.98,0.43l0.7,1.65L194.95,91.7z
	 M202.96,91.28l0.01,0.03l-4.74,4.38l-1.73-4.06L202.96,91.28z M70.1,76.45l-1.78-3.78l3.85-3.94l3.8,1.72l1.34-1.37l-12.88-5.46
	l-1.34,1.37l5.76,12.74L70.1,76.45z M64.85,65.43l0.03-0.03l5.86,2.69l-3.09,3.16L64.85,65.43z M80.69,66.54l-3.21-4.55l3.46-2.44
	c1.37-0.97,2.24-0.27,3.13,0.67c0.95,0.9,1.53,2.2,2.24,2.35l1.58-1.12c-1.11-0.31-1.87-1.51-2.7-2.49
	c-0.84-0.97-1.74-1.7-3.14-1.06l-0.02-0.03c1.03-1.26,0.85-2.72-0.06-4c-1.2-1.7-3.2-1.91-5.2-0.5l-5.01,3.54l7.52,10.64
	L80.69,66.54z M74.02,57.09l3.52-2.48c1.33-0.94,2.44-0.56,3.18,0.48c1.1,1.55,0.21,2.69-1.12,3.63l-2.95,2.09L74.02,57.09z
	 M198.92,158.67l1.26,0.74l-8.57,14.54l-1.26-0.74L198.92,158.67z M41.36,134.76l0.48,4.32l-1.45,0.16l-1.16-10.35l1.45-0.16
	l0.48,4.32l11.5-1.29l0.19,1.72L41.36,134.76z M45.55,125.01c3.53,0.25,6.95-1.62,7.24-5.75c0.29-4.13-2.84-6.45-6.37-6.7
	c-3.53-0.25-6.95,1.62-7.24,5.75C38.89,122.45,42.02,124.77,45.55,125.01z M46.3,114.29c2.62,0.18,5.26,1.7,5.04,4.87
	c-0.22,3.17-3.04,4.31-5.66,4.12c-2.62-0.18-5.26-1.7-5.04-4.87C40.85,115.25,43.67,114.11,46.3,114.29z M195.84,105.47l5.43-1.21
	l0.92,4.13c0.36,1.64-0.62,2.18-1.83,2.63c-1.19,0.53-2.62,0.56-3.03,1.16l0.42,1.89c0.71-0.91,2.12-1.14,3.34-1.53
	c1.22-0.4,2.24-0.95,2.19-2.49l0.04-0.01c0.77,1.44,2.18,1.83,3.71,1.49c2.03-0.45,3-2.22,2.47-4.6l-1.33-5.98l-12.72,2.83
	L195.84,105.47z M207.13,102.96l0.93,4.2c0.35,1.59-0.42,2.47-1.67,2.75c-1.85,0.41-2.56-0.85-2.92-2.44l-0.79-3.53L207.13,102.96z
	 M50.81,158.09l8.46,14.6l-1.26,0.73l-8.46-14.6L50.81,158.09z M204.54,116.36c3.78-0.1,6.92,1.96,7.03,5.97
	c0.08,2.72-1.32,5-4.08,5.48l-0.05-1.73c1.83-0.41,2.72-1.92,2.67-3.72c-0.09-3.1-2.68-4.34-5.39-4.27
	c-2.97,0.08-5.42,1.47-5.33,4.58c0.06,2.28,1.7,3.55,3.86,3.65l0.05,1.73c-3.26-0.24-5.28-2.21-5.37-5.49
	C197.81,118.52,200.74,116.47,204.54,116.36z M198.09,131.52l12.84,2.16l-0.29,1.71l-5.53-0.93l-1.14,6.76l5.53,0.93l-0.29,1.71
	l-12.84-2.16l0.29-1.71l5.88,0.99l1.14-6.76l-5.88-0.99L198.09,131.52z M159.53,60.29c3.65,1.96,7.05,0.05,8.72-3.07
	c1.67-3.12,1.37-7-2.28-8.96c-3.65-1.96-7.05-0.05-8.72,3.07C155.57,54.45,155.87,58.34,159.53,60.29z M158.77,52.15
	c1.24-2.32,3.71-4.1,6.5-2.6c2.8,1.5,2.68,4.54,1.44,6.86c-1.24,2.32-3.71,4.1-6.51,2.6C157.41,57.51,157.53,54.47,158.77,52.15z
	 M90.62,59.95l-5.35-11.88l1.68-0.76l10.59,6.82l0.03-0.02l-4.34-9.63l1.5-0.67l5.35,11.88l-1.73,0.78l-10.5-6.74l-0.03,0.01
	l4.29,9.53L90.62,59.95z M116.4,47.13l-0.01-1.46l16.88-0.09l0.01,1.46L116.4,47.13z M151,43.84l-4.12-1.36l0.46-1.38l9.89,3.27
	l-0.46,1.39l-4.12-1.36l-3.63,10.98l-1.65-0.55L151,43.84z M160.87,189.45l1.25,13.77l-1.79,0.82l-9.63-9.9l1.71-0.79l8.11,8.7
	l0.03-0.02l-1.32-11.83L160.87,189.45z M178.54,191.32l0.85,1.19l-7.35,5.27l-7.59-10.58l7.31-5.24l0.85,1.19l-5.9,4.23l2.41,3.37
	l5.5-3.95l0.85,1.19l-5.5,3.95l2.63,3.66L178.54,191.32z M58.29,91.53l1.35,0.55l-3.28,7.98l-12.05-4.95l0.66-1.6l10.7,4.39
	L58.29,91.53z M146.81,202.34l-0.01-0.03c1.42-0.79,1.79-2.22,1.43-3.74c-0.49-2.02-2.27-2.96-4.65-2.39l-5.96,1.44l3.05,12.66
	l1.68-0.41l-1.3-5.41l4.11-0.99c1.63-0.39,2.19,0.58,2.66,1.78c0.55,1.18,0.61,2.61,1.21,3.01l1.88-0.45
	c-0.92-0.7-1.18-2.1-1.59-3.32C148.91,203.27,148.35,202.26,146.81,202.34z M144.22,202.19l-3.51,0.85l-1.06-4.42l4.19-1.01
	c1.58-0.38,2.47,0.38,2.78,1.62C147.05,201.08,145.8,201.81,144.22,202.19z M65.98,88.65c0,22.11,3.84,64.95,58.48,104.48
	c54.15-38.86,59.12-82.38,59.12-104.48c-22.27-4.32-38.96-15.53-59.12-31.32C104.3,73.12,90.87,83.81,65.98,88.65z M178.92,111.14
	c-5.36,30.25-23.55,56.68-54.04,78.56l-0.22,0.16l-0.22-0.16c-30.57-22.12-48.6-48.56-53.59-78.59l-0.07-0.44L179,110.7
	L178.92,111.14z M124.89,61.45c20.49,16.05,35.39,25.48,55.41,29.37l0.31,0.06v0.31c0,6.12-0.42,11.84-1.28,17.47l-0.05,0.32
	L70.5,108.96l-0.05-0.33c-1.03-7.23-1.15-13.42-1.15-17.44v-0.31l0.31-0.06c23.01-4.46,35.38-14.15,54.09-28.81l0.95-0.74
	L124.89,61.45z M71.66,111.44l106.43,0.02c-5.41,29.79-23.39,55.85-53.44,77.47C94.54,167.08,76.71,141.01,71.66,111.44z
	 M70.06,91.5c22.99-4.53,35.39-14.23,54.11-28.9l0.48-0.37c20.36,15.93,35.25,25.33,55.19,29.27c-0.01,5.85-0.41,11.33-1.22,16.72
	L71.16,108.2C70.2,101.34,70.07,95.44,70.06,91.5z M183.68,74.63c-1.98,1.94-4.68,0.77-6.34-0.92c-2.04-2.09-2.74-4.84-0.47-7.06
	l1.15,1.17c-1.57,1.53-0.97,3.5,0.41,4.91c1.1,1.12,2.66,2.02,4,0.7c1.28-1.25,0.05-2.95-1.08-4.76c-1.13-1.81-2.16-3.73-0.45-5.4
	c1.89-1.85,4.37-0.98,6.03,0.71c1.86,1.9,2.38,4.23,0.41,6.31l-1.15-1.17c1.19-1.44,0.9-2.89-0.35-4.17
	c-1.02-1.04-2.42-1.72-3.63-0.53c-1.15,1.12,0.14,2.78,1.26,4.61C184.57,70.85,185.5,72.84,183.68,74.63z M190.36,87.92l-1.22,0.8
	l-4.94-7.58l10.92-7.11l4.91,7.54l-1.22,0.8l-3.96-6.08l-3.47,2.26l3.7,5.67l-1.22,0.8l-3.7-5.67l-3.78,2.46L190.36,87.92z
	 M84.68,188.45l-3.49-2.58l-6.87,9.3l-1.39-1.03l6.87-9.3l-3.49-2.58l0.87-1.17l8.38,6.19L84.68,188.45z M133.21,209.84l0.06,1.46
	l-9.04,0.35l-0.5-13.02l8.99-0.34l0.06,1.46l-7.26,0.28l0.16,4.14l6.76-0.26l0.06,1.46l-6.76,0.26l0.17,4.5L133.21,209.84z
	 M66.74,80.54l-4.94,7.59l-10.92-7.11l4.91-7.54l1.22,0.8l-3.96,6.08l3.47,2.26l3.69-5.67l1.22,0.8l-3.69,5.67l3.78,2.46l3.99-6.13
	L66.74,80.54z M117.7,202.14l-1.62-0.25c0.09-1.87-1.02-2.85-2.78-3.12c-1.44-0.22-2.96,0.08-3.23,1.75
	c-0.24,1.59,1.78,2.14,3.78,2.93c1.98,0.79,3.93,1.82,3.54,4.35c-0.42,2.74-3.28,3.42-5.63,3.06c-2.88-0.45-5.1-2.23-4.62-5.37
	l1.62,0.25c-0.34,2.16,1.32,3.38,3.27,3.68c1.55,0.24,3.34,0.02,3.63-1.84c0.27-1.77-1.73-2.39-3.72-3.16
	c-1.99-0.77-3.97-1.68-3.6-4.05c0.4-2.61,2.91-3.41,5.25-3.05C116.22,197.74,118.03,199.29,117.7,202.14z M92.78,190.77
	c-3.72-1.82-7.05,0.2-8.61,3.38c-1.56,3.18-1.12,7.05,2.6,8.88c3.72,1.82,7.05-0.2,8.61-3.38C96.94,196.46,96.5,192.59,92.78,190.77
	z M93.82,198.88c-1.16,2.36-3.56,4.23-6.41,2.83c-2.85-1.4-2.84-4.44-1.68-6.8c1.16-2.36,3.56-4.23,6.41-2.83
	C94.99,193.48,94.98,196.52,93.82,198.88z"/>
<path fill="#004C93" d="M127.72,95.56c-0.89,0.25-0.13-0.63,0.51-0.89c0.63-0.25,3.55-1.01,5.7-0.76c2.15,0.25,4.05,1.9,3.42,1.77
	c-0.63-0.13-3.04-0.63-5.07-0.76C130.25,94.8,127.72,95.56,127.72,95.56 M127.55,93.45c0,0,2.53-0.76,4.56-0.63
	c2.03,0.13,4.43,0.63,5.07,0.76c0.63,0.13-1.27-1.52-3.42-1.77c-2.15-0.25-5.07,0.51-5.7,0.76
	C127.42,92.82,126.66,93.7,127.55,93.45 M127.46,91c0,0,2.53-0.76,4.56-0.63c2.03,0.13,4.43,0.63,5.07,0.76
	c0.63,0.13-1.27-1.52-3.42-1.77c-2.16-0.25-5.07,0.51-5.7,0.76C127.34,90.37,126.57,91.26,127.46,91 M127.8,88.64
	c0,0,2.53-0.76,4.56-0.63c2.02,0.13,4.43,0.63,5.07,0.76c0.63,0.13-1.27-1.52-3.42-1.77c-2.15-0.25-5.07,0.51-5.7,0.76
	C127.67,88,126.91,88.89,127.8,88.64 M127.8,86.7c0,0,2.53-0.76,4.56-0.63c2.03,0.13,4.43,0.63,5.07,0.76
	c0.63,0.13-1.27-1.52-3.42-1.77c-2.15-0.25-5.06,0.51-5.7,0.76C127.67,86.06,126.91,86.95,127.8,86.7 M127.63,84.67
	c0,0,2.53-0.76,4.56-0.63c2.03,0.13,4.43,0.63,5.07,0.76c0.63,0.13-1.27-1.52-3.42-1.77c-2.15-0.25-5.07,0.51-5.7,0.76
	C127.5,84.03,126.74,84.92,127.63,84.67 M112.01,95.65c0,0,2.53-0.76,4.56-0.63c2.03,0.13,4.43,0.63,5.07,0.76
	c0.63,0.13-1.27-1.52-3.42-1.77c-2.15-0.25-5.07,0.51-5.7,0.76C111.88,95.01,111.12,95.9,112.01,95.65 M111.84,93.54
	c0,0,2.53-0.76,4.56-0.63c2.03,0.13,4.43,0.63,5.07,0.76c0.63,0.13-1.27-1.52-3.42-1.77c-2.15-0.25-5.07,0.51-5.7,0.76
	C111.71,92.9,110.95,93.79,111.84,93.54 M111.76,91.09c0,0,2.53-0.76,4.56-0.63c2.03,0.13,4.43,0.63,5.07,0.76
	c0.63,0.13-1.27-1.52-3.42-1.77c-2.15-0.25-5.07,0.51-5.7,0.76C111.63,90.45,110.87,91.34,111.76,91.09 M112.09,88.72
	c0,0,2.53-0.76,4.56-0.63c2.03,0.13,4.43,0.63,5.07,0.76c0.63,0.13-1.27-1.52-3.42-1.77c-2.15-0.25-5.07,0.51-5.7,0.76
	C111.97,88.09,111.21,88.98,112.09,88.72 M112.09,86.78c0,0,2.53-0.76,4.56-0.63c2.03,0.13,4.43,0.63,5.07,0.76
	c0.63,0.13-1.27-1.52-3.42-1.77c-2.16-0.25-5.07,0.51-5.7,0.76C111.97,86.15,111.21,87.03,112.09,86.78 M111.92,84.75
	c0,0,2.53-0.76,4.56-0.63c2.03,0.13,4.43,0.63,5.07,0.76c0.63,0.13-1.27-1.52-3.42-1.77c-2.15-0.25-5.07,0.51-5.7,0.76
	C111.8,84.12,111.04,85.01,111.92,84.75 M146.55,83.44v21.28l-20.27,0.13c0,0-0.93-1.77-1.69-1.77s-1.48,1.69-1.48,1.69h-20.52
	l-0.38-20.94c0,0,5.83-3.17,7.85-3.8c2.03-0.63,5.19-1.52,8.23-1.01c3.04,0.51,4.94,1.14,5.83,1.52c0.89,0.38,2.03-0.51,2.91-0.89
	c0.89-0.38,6.71-1.77,11.91,0.13C144.14,81.67,146.55,83.44,146.55,83.44z M144.9,84.96c0,0-0.36-0.3-0.98-0.73l-0.41,17.33
	c0,0-0.76-0.44-1.69-0.71c-0.93-0.27-2.03-0.53-2.03-0.53s1.44-0.27,2.03-0.18c0.59,0.09,1.1,0.09,1.1,0.09V83.56
	c-0.09-0.06-0.18-0.11-0.27-0.17l-0.41,16.4c0,0-4.31-0.51-8.02-0.34c-0.96,0.04-7.34,1.18-7.34,1.18s3.77-1.43,6.59-1.69
	c2.79-0.25,8.36,0.08,8.36,0.08l-0.16-16.23c-0.17-0.1-0.35-0.2-0.54-0.29l-0.4,16.1c0,0-0.76-0.42-1.69-0.68
	c-0.93-0.25-2.87-0.17-2.87-0.17s2.28-0.59,2.87-0.51c0.59,0.09,1.1,0.09,1.1,0.09V81.99c-2.3-1.12-5.17-2.07-8.02-1.84
	c-4.43,0.35-6.6,1.63-7.52,2.37l-0.16,17.27l-0.51-1.18c0,0-0.17-8.62-0.17-12.33c0-2.01-0.12-3.07-0.24-3.63
	c-0.72-0.56-2.28-1.51-4.83-1.86c-3.67-0.51-5.45,0-7.09,0.51c-0.68,0.21-1.57,0.7-2.45,1.25v15.9c0,0,0.51,0,1.1-0.08
	c0.59-0.08,2.03,0.17,2.03,0.17s-1.1,0.25-2.03,0.51c-0.93,0.25-1.69,0.68-1.69,0.68l-0.41-16.52c-0.21,0.14-0.41,0.28-0.6,0.41
	v16.57c0,0,0.51,0,1.1-0.09c0.59-0.09,2.03,0.19,2.03,0.19s-1.1,0.28-2.03,0.56c-0.93,0.28-1.61,0.41-1.61,0.41l-0.46-16.94
	c-0.15,0.11-0.27,0.2-0.38,0.27v17.26c0,0,0.51-0.24,1.1-0.34c0.26-0.04,3.33-0.54,6-0.59c3.35-0.07,7.01,0.93,7.01,0.93
	s-4.19-0.68-7.52-0.42c-2.62,0.2-5.08,0.72-5.49,0.85c-0.93,0.28-1.77,0.84-1.77,0.84l-0.31-17.83c-0.22,0.15-0.32,0.22-0.32,0.22
	v18.11c0,0,4.69-1.1,8.49-1.18c3.82-0.08,5.57-0.04,7.35,0.59c1.77,0.63,1.65,0.21,1.65,0.21s0.38-2.28,2.15-2.41
	c1.77-0.13,2.11,2.53,2.11,2.53s4.86-1.39,9.29-1.52c4.43-0.13,8.87,1.14,8.87,1.14L144.9,84.96z M112.52,98.6l4.31,0.08
	c0,0-0.68-0.42-1.77-0.51C113.95,98.1,112.52,98.6,112.52,98.6 M134.81,100.38l4.31,0.08c0,0-0.68-0.42-1.77-0.51
	C136.24,99.87,134.81,100.38,134.81,100.38 M139.72,132.1c-0.02-0.14-0.05-0.72,0.02-0.98c0.07-0.26,0.45-0.24,0.45-0.24
	c0.35,0.14,0.23,1.29,0.12,1.33C140.19,132.26,139.74,132.24,139.72,132.1z M138.46,134.34c0.19,0,0.23-0.21,0.16-0.44
	c-0.07-0.24-0.05-0.54-0.28-0.52c0,0-0.45,0.02-0.45,0.19c0,0.16,0.02,0.33,0.21,0.45C138.29,134.13,138.27,134.34,138.46,134.34z
	 M139.11,133.5c0.11-0.21,0.3-0.93-0.02-1.1c0,0-0.16-0.07-0.21,0.09c-0.05,0.16-0.28,0.65-0.21,0.84
	C138.74,133.52,138.99,133.71,139.11,133.5z M144.17,138.99v1.12c0.07,0.28,0,0.56-0.07,0.84c-0.07,0.35,0.07,0.77,0,1.12
	c-0.28,0.91-0.21,1.96-0.56,2.73c-0.07,0.21-0.42,0.42-0.49,0.77c-0.14,0-0.21,0.07-0.21,0.14c0,0.28-0.14,0.49-0.21,0.7
	c0.07-0.77,0.63-1.33,0.77-2.1c0.21-1.26,0.49-2.45,0.21-3.71c0-0.28-0.42-0.07-0.42,0.14c0.07,0.84,0.14,1.75-0.21,2.52
	c0,0-0.07,0.21-0.14,0.28c-0.3,0.3-0.14,0.84-0.35,1.26c-0.28,0.49-0.35,1.12-0.63,1.61c-0.28,0.49-0.21,1.12-0.42,1.68
	c-0.07,0.21-0.07,0.49-0.14,0.7c-0.07,0.21-0.14,0.49-0.14,0.77c-0.14,0.49-0.42,0.91-0.35,1.33c0,0.14,0.21,0.21,0.28,0.35
	c0.14-0.14,0.28-0.35,0.28-0.49c0.14-0.28,0.14-0.63,0.35-0.91c0,1.26-0.56,2.52-0.49,3.78c-0.14,0,0-0.21-0.14-0.21
	c-0.21-0.07-0.42,0-0.49,0.21c-0.28,0.63-0.7,1.26-0.56,2.03c0.07,0.21,0.21,0.42,0.42,0.49c0.14,0,0.21-0.07,0.28-0.14
	c0.07-0.21-0.07-0.42,0-0.63c0.21-0.49,0.21-0.98,0.49-1.4c0.14,0.56-0.07,1.19-0.14,1.75c0,0.21,0.35,0.56,0.56,0.28
	c0.28-0.49,0.21-1.12,0.35-1.68c0-0.07-0.07-0.07-0.14-0.07v-1.12c0.07,0,0.14,0,0.14-0.07c0-0.07-0.07-0.07-0.14-0.07
	c0.14-0.35,0.07-0.84,0.28-1.19v1.26c0,0.91-0.07,1.82-0.07,2.73c0,0.07,0.14,0.21,0.21,0.21c0.56-0.07,0.56-0.7,0.56-1.12
	c0.07-0.91,0-1.89,0.14-2.8c0-0.35,0.21-0.7,0.21-1.05c-0.07-0.14-0.35-0.14-0.42-0.28c-0.14-0.56,0.07-1.19,0.14-1.75
	c0.07-0.49-0.14-0.91,0.21-1.4c0,0-0.07-0.07-0.14-0.07c0.42-0.63,0.35-1.4,0.63-2.03c0,0.21,0.07,0.42,0.28,0.56
	c0.21,0.07,0.42,0,0.42-0.21c-0.07-0.91,0-1.82,0.28-2.66c0-0.14,0-0.28-0.07-0.42c-0.07-0.21,0.07-0.49,0.14-0.7
	c0.14-1.05,0.14-2.03-0.07-3.09C144.52,138.71,144.1,138.71,144.17,138.99z M142,144.81c0.14-0.28,0.28-0.56,0.14-0.84
	c-0.07-0.21-0.42-0.07-0.49,0.14c0,0.7-0.35,1.4-0.77,1.82c-0.42,0.42-0.7,0.91-1.05,1.4c-0.14,0.21-0.28,0.56-0.21,0.84
	c0.07,0.14,0.28,0.21,0.35,0.14c0.42-0.56,0.21-1.47,0.84-1.82C141.5,146.21,141.69,145.43,142,144.81z M145.73,131.69
	c0.02-0.21-0.07-0.44-0.16-0.53c-0.09-0.09-0.16-0.14-0.35-0.1c0,0-0.12,0.09-0.07,0.17c0.05,0.09,0.14,0.35,0.23,0.42
	C145.46,131.72,145.71,131.89,145.73,131.69z M123.62,126.24c-0.02-0.19-0.14-0.21-0.26-0.23c0,0-0.21-0.05-0.28,0.09
	c-0.07,0.14-0.09,0.28,0.09,0.35C123.37,126.52,123.65,126.42,123.62,126.24z M117.08,151.74c0.28,0.21,0.84,0.07,0.98,0.42
	c0.07,0.35,0.14,1.05,0.56,0.84c0.21-0.07,0.2-0.39,0.28-0.63c0.07-0.21,0.28-0.42,0.21-0.56c-0.42-0.35-1.12-0.21-1.61-0.42
	C117.22,151.32,116.8,151.53,117.08,151.74z M142.66,127.71c0.21-0.04,0.3-0.16,0.3-0.26c0-0.09-0.21-0.21-0.33-0.19
	c0,0-0.3,0.02-0.3,0.16C142.34,127.57,142.45,127.76,142.66,127.71z M141.96,142.43c0,0.21,0.07,0.49,0.28,0.56
	c0-0.14,0.21,0,0.21-0.14c0.14-0.42-0.04-0.82,0.14-1.19c0.07-0.14,0.49-0.21,0.42-0.49c-0.07,0-0.14,0-0.14-0.07
	c0-0.35-0.07-0.77,0.07-1.12c0.14-0.35,0.21-0.77,0.14-1.05c-0.14-0.28-0.63,0.14-0.77,0.35c-0.14,0.35-0.21,0.77-0.28,1.12
	c-0.14,0.56-0.07,1.05-0.07,1.61c0,0.07-0.07,0.07-0.14,0.07v0.14c0.07,0,0.14,0,0.14,0.07c0,0.07-0.07,0.07-0.14,0.07
	C141.89,142.36,141.96,142.36,141.96,142.43z M141.07,133.52c0.17-0.02,0.52-0.33,0.35-0.4c-0.17-0.07-0.45-0.31-0.61-0.28
	c0,0-0.21,0.12-0.12,0.28C140.79,133.29,140.91,133.55,141.07,133.52z M124.63,140.63c-0.1,0,0.16,0.31,0.28,0.33
	c0.12,0.02,0.4,0,0.54-0.12c0.14-0.12,0.28-0.23,0.12-0.26C125.4,140.56,124.74,140.63,124.63,140.63z M108.46,143.26v-1.54
	c0.07,0,0.14,0,0.14-0.07c0-0.21,0.07-0.49-0.14-0.63c0.07,0,0.14,0,0.14-0.07c0.07-0.56-0.14-1.19,0.07-1.54
	c0.28-0.42,0.28-1.05,0.21-1.54c-0.07-0.21-0.56-0.35-0.77-0.14c-0.35,0.28-0.21,0.84-0.14,1.33c0.21,1.61-0.28,3.08-0.07,4.7
	c0.07,0.14,0.28,0.07,0.35,0.07C108.39,143.69,108.46,143.47,108.46,143.26z M107.69,153.92c0.07-0.42,0.35-1.4-0.28-1.33
	c-0.14,0-0.07,0.21-0.07,0.21c-0.07,0.63-0.21,1.26,0,1.89c0.21,0.7,0.77,1.26,1.54,1.33c0.14,0.07,0.21-0.21,0.14-0.35
	C108.53,155.04,107.53,154.91,107.69,153.92z M131.73,151.68v0.21c0.42,0.28,0.91,0.14,1.4,0.14c0.28,0,0.63,0,0.84-0.21v-0.21
	C133.2,151.46,132.43,151.18,131.73,151.68z M110.01,144.95c-0.07-0.28-0.35-0.42-0.42-0.21c-0.35,0.7-0.21,1.47-0.42,2.17
	c-0.07,0.35-0.21,0.7-0.28,1.05c-0.21,0.63-0.42,1.26-0.35,1.89c0,0,0.28,0.21,0.28,0c0.07-0.35,0.07-0.7,0.21-0.98
	c0.14-0.42,0.21-0.91,0.42-1.33c0.07-0.07,0.14-0.21,0.21-0.28c0.21,0.28,0.07,0.84-0.07,1.26c-0.42,1.47-0.84,2.87-0.91,4.42
	c0,0.21,0.35,0.42,0.42,0.14c0.14-0.49,0.14-0.98,0.21-1.47c0.07-0.84,0.49-1.54,0.63-2.38c0.14-0.91,0.42-1.82,0.42-2.73
	c0-0.63,0.28-1.26,0-1.82C110.28,144.53,110.14,144.81,110.01,144.95z M150.32,136.16c0.09-0.49,0.72-3.22,0.72-3.46
	s-0.44-0.26-0.93-0.28c-0.49-0.02-1.24,0.16-1.24,0.16s-0.16,0.63-0.33,1.35c-0.16,0.72-0.45,1.36-0.68,1.78
	c-0.23,0.42-0.2,0.78-0.13,1.27c0.07,0.49,0.17,1.09,0.14,1.44c-0.03,0.35,0.35,2.03,0.53,2.56c0.17,0.52,0.21,1.51,0.35,2
	c0.14,0.49,0.03,0.6-0.03,0.77c-0.07,0.17-0.24,0.21-0.17,0.49c0.07,0.28-0.17,0.7-0.38,1.02c-0.21,0.31-0.39,0.31-0.53,0.77
	c-0.14,0.46-0.1,1.58-0.1,2.07c0,0.49,0.03,1.51,0.1,2.38c0.07,0.88,0.21,3.47,0.24,3.75c0.03,0.28,0.1,1.51,0.38,1.79
	c0.28,0.28,0.74,1.12,0.74,1.12s0.38,0.03,0.74,0.07c0.35,0.03,1.23,0.17,2.38,1.05c1.16,0.88-0.1,1.72-0.53,2.17
	c-0.42,0.46-0.63,1.09-0.74,1.58c-0.1,0.49-0.56,0.67-0.95,0.77c-0.38,0.1-0.59-0.03-0.87-0.03c-0.28,0-0.49,0.42-0.7,0.49
	c-0.21,0.07-1.01,0.03-1.3-0.25c-0.28-0.28-0.03-0.74,0.25-0.95c0.28-0.21,0.28-0.67,0.31-0.95c0.03-0.28-0.95-0.1-1.93-0.07
	c-0.98,0.03-4.87-0.03-5.15,0c-0.28,0.03-0.21,0.24,0.42,0.91c0.63,0.67,0.1,1.12-0.24,1.37c-0.35,0.25-0.77,0.49-4.14,1.75
	c-3.36,1.26-4.98,1.79-10.27,2.21c-5.29,0.42-10.76-0.81-13.52-1.65s-4.59-2.21-4.59-2.49s0.31-0.74,0.39-0.84
	c0.07-0.1,0.1-0.21-0.03-0.28c-0.14-0.07-1.05-0.1-1.65-0.07c-0.6,0.03-1.89-0.07-2.42-0.18c-0.52-0.1-1.23-0.14-2-0.17
	c-0.77-0.03-0.73,0.28-0.7,0.52c0.04,0.24,0.7,0.74,0.98,1.05c0.28,0.31-0.53,0.77-0.88,0.84c-0.35,0.07-0.84,0.14-1.16-0.07
	c-0.31-0.21-0.45-0.38-0.8-0.46c-0.35-0.07-0.84-0.24-1.02-0.38c-0.17-0.14-0.28-0.49-0.42-0.67c-0.14-0.17-0.53-1.16-0.95-2.03
	c-0.42-0.87-0.63-1.05-0.67-1.3c-0.03-0.24,0.32-0.63,0.67-0.81c0.35-0.17,1.86-0.56,2.87-0.67c1.02-0.1,2.77-0.1,2.77-0.1
	c-0.01-0.24-1.02-1.34-1.25-1.62c-0.24-0.28-0.68-1.03-0.68-1.4c0-0.37,0.09-1.96,0.12-2.2c0.02-0.23-0.3-0.7-0.3-0.91
	c0-0.21,0.23-1.78,0.28-2.29c0.05-0.51,0.02-1.1-0.16-1.28c-0.19-0.19-0.58-0.35-0.65-0.54c-0.07-0.19,0.05-0.7,0.14-1.05
	c0.09-0.35,0.33-1.75,0.38-2.24c0.05-0.49,0.3-2.03,0.44-2.52c0.14-0.49,0.21-1.21,0.21-1.61s0.12-1.05,0.26-1.54
	s0.12-1.07,0.12-1.47c0-0.4-0.14-0.72-0.35-1c-0.21-0.28-0.44-0.75-0.63-1.24c-0.19-0.49-0.49-1.96-0.56-2.64
	c-0.07-0.68-0.3-2.15-0.23-2.34c0.07-0.19,0.56-1.21,0.75-1.66c0.19-0.44,0.05-0.77-0.05-1c-0.09-0.23-0.49-0.23-0.63-0.3
	c-0.14-0.07-0.23-0.89-0.23-1.12c0-0.24,0.02-1.59,0.02-1.82c0-0.24,0.28-0.52,0.37-0.61c0.09-0.09,0.19-0.33,0.35-0.49
	c0.16-0.16,0.63-0.44,0.86-0.21c0.23,0.23-0.33,0.7-0.38,0.77c-0.05,0.07,0.02,0.44,0.07,0.68c0.05,0.23,0.21,0.28,0.35,0.3
	c0.14,0.02,0.3,0.28,0.54,0.44c0.23,0.17,0.33,0.68,0.28,0.96c-0.05,0.28-0.42,0.58-0.56,0.7c-0.14,0.12-0.23,0.26-0.21,0.42
	c0.02,0.16-0.02,0.58-0.05,0.7c-0.03,0.11,0.07,0.44,0.23,0.58c0.16,0.14,0.47,0.26,0.54,0.45c0.07,0.19-0.02,1.28-0.14,1.38
	c-0.12,0.09-0.33,0.35-0.33,0.49c0,0.14,0.07,1.73,0.12,1.99c0.05,0.26,0.19,0.33,0.35,0.09c0.17-0.23,0.33-0.63,0.45-0.86
	c0.12-0.24,0.56-1.19,0.75-1.43c0.19-0.23,0.68-0.82,0.79-0.98s0.12-0.4,0.3-0.7c0.19-0.3,0.61-0.77,0.72-0.93
	c0.12-0.16,0.05-0.61,0.05-0.86c0-0.26,0.09-0.75,0.21-0.91c0.12-0.16,0.56-0.45,0.65-0.54c0.09-0.09,0.07-0.54,0.19-0.77
	c0.12-0.23,0.16-0.75,1.03-0.79c0.86-0.05,1.1,0.79,1.14,0.94c0.05,0.14,0.16,0.54,0.33,0.65c0.16,0.12,0.45,0.63,0.54,0.91
	c0.09,0.28,0.14,1.03,0.19,1.17c0.05,0.14,0.33,0.45,0.35,0.68c0.02,0.23,0.12,0.56,0.28,0.7c0.16,0.14,0.44,0.61,0.47,0.72
	c0.02,0.11,0.45,0.72,0.56,0.89c0.12,0.16,0.26,0.44,0.4,0.54c0.14,0.09,0.4,0.79,0.52,1.05c0.12,0.26,0.37,0.52,0.49,0.7
	c0.12,0.19,0.38,0.58,0.47,0.56c0.09-0.03,0.84-0.49,1.14-0.65c0.3-0.16,1.45-1.22,2.01-1.71c0.56-0.49,1.38-0.49,1.66-0.52
	c0.28-0.02,0.7-0.12,0.84-0.16c0.14-0.05,0.26-0.09,0.23-0.28s0.14-0.42,0.28-0.56c0.14-0.14,0.47-0.12,0.72-0.09
	c0.26,0.02,0.56,0.12,0.72,0.09c0.16-0.02,0.16-0.28,0.12-0.44c-0.05-0.16-0.45-0.89-0.49-1.17c-0.05-0.28-0.16-1.28,0.24-2.2
	c0.4-0.91,1.21-1.78,1.66-2.13c0.45-0.35,1.43-0.77,1.43-0.77s-0.23-0.33-0.35-0.44s-0.31-0.31-0.31-0.45s-0.14-0.65-0.14-0.65
	s-0.7-0.05-0.91-0.07c-0.21-0.02-0.23-0.14-0.47-0.16c-0.23-0.03-1,0.02-1.21-0.1c-0.21-0.12-0.89-0.49-1.14-0.54
	c-0.26-0.05-1.21-0.63-1.57-0.84c-0.35-0.21-1.05-0.96-1.35-1.17c-0.3-0.21-1-1.1-1.26-1.43c-0.26-0.33-1.38-1.56-1.38-1.56
	c-0.61-0.61-1.38-0.72-1.63-1.33c-0.3-0.72,0.86-0.28,0.86-0.28s0.79,0.3,1.22,0.37c0.42,0.07,1.68,0.24,2.69,0.45
	c1,0.21,3.01,0.54,3.78,1.05c0.77,0.51,0.49,1.21,0.49,1.42c0,0.21,0.12,0.56,0.3,0.65c0.19,0.09,0.65,0.21,0.84,0.21
	c0.19,0,0.68-0.21,0.91-0.82c0.24-0.61-0.19-1.31-0.33-1.42c-0.14-0.12-0.63-0.35-0.82-0.42c-0.19-0.07-0.09-0.37,0-0.44
	c0.09-0.07,0.3-0.21,0.61-0.19c0.3,0.02,0.44-0.14,0.72-0.14c0.28,0,0.65-0.02,0.79,0.05c0.14,0.07,0.26,0.23,0.45,0.28
	c0.19,0.05,0.26,0.21,0.33,0.47c0.07,0.26,0.14,1.12,0.3,1.47c0.17,0.35,0.42,0.65,0.82,0.7c0.4,0.05,0.54-0.33,0.77-0.61
	c0.23-0.28,0.12-1,0.68-1.45c0.56-0.45,1.73-0.54,2.64-0.61c0.91-0.07,3.55-0.4,3.76-0.4c0.21,0,0.82-0.35,1-0.4
	c0.18-0.05,0.56-0.14,0.68,0.12c0.12,0.26-0.42,0.61-0.68,0.77c-0.26,0.16-0.65,0.47-0.82,0.49c-0.16,0.02-0.58,0.16-0.68,0.23
	c-0.09,0.07-0.58,0.84-0.63,0.98c-0.05,0.14-0.63,0.84-0.8,1c-0.16,0.16-0.49,0.58-0.54,0.7c-0.05,0.12-0.07,0.42-0.07,0.42
	l0.14,0.05v10.33c0,0,0.24,0.02,0.42,0.02c0.19,0,0.54,0.09,0.65,0.19c0.12,0.09,0.63,0.77,0.79,0.96c0.16,0.19,1.92,1.82,2.1,1.96
	c0.19,0.14,0.52,0.45,0.7,0.47s0.38-0.21,0.49-0.38c0.12-0.16,0.47-0.44,0.61-0.7c0.14-0.26,0-0.52,0.19-0.75
	c0.19-0.23,0.56-0.72,0.79-0.82c0.24-0.09,0.31-0.12,0.68-0.37c0.37-0.26,0.37-0.45,0.4-0.61c0.02-0.16,0.02-0.54,0.28-0.77
	c0.26-0.23,0.63-0.93,0.72-1.19c0.09-0.26,0.21-1,0.26-1.26c0.05-0.26,0.23-0.47,0.4-0.58s0.19-0.54,0.35-0.75
	c0.17-0.21,0.52-0.68,0.91-0.68c0.4,0,0.82,0.1,1.12,0.45c0.3,0.35,0.35,1.14,0.42,1.33c0.07,0.19,0.28,0.61,0.45,0.82
	c0.16,0.21,0.14,0.61,0.04,0.7c-0.09,0.09-0.02,0.23,0.07,0.49c0.09,0.26,0.42,0.51,0.65,0.68c0.23,0.16,0.28,0.68,0.33,0.79
	s0.26,0.58,0.42,0.7s0.4,1.07,0.54,1.26c0.14,0.19,0.28,1.14,0.47,1.17c0.19,0.03,0.26-0.28,0.26-0.52c0-0.23-0.05-0.79-0.05-1.05
	c0-0.26-0.09-0.58-0.16-0.72c-0.07-0.14-0.16-0.58-0.12-0.7c0.05-0.12,0.23-0.28,0.28-0.4c0.05-0.12-0.07-0.4-0.05-0.65
	c0.02-0.26,0.24-0.28,0.49-0.26c0.26,0.02,0.4,0.28,0.42,0.4c0.02,0.12-0.19,0.33-0.21,0.4c-0.02,0.07,0.19,0.24,0.28,0.28
	c0.09,0.05,0.54,0.4,0.56,0.54c0.02,0.14,0.12,0.26,0.26,0.49c0.14,0.23,0.16,1.12,0.14,1.24c-0.03,0.12,0.02,0.89,0.02,0.89
	s0.61,0.1,0.86,0.12c0.26,0.02,1.22,0.02,1.33-0.02c0.12-0.05,0.23-0.14,0.42-0.12c0.19,0.02,0.33,0.4,0.3,0.54
	c-0.02,0.14,0.14,0.65,0.26,0.93c0.12,0.28,0.72,2.94,0.77,3.36c0.05,0.42,0.03,0.75-0.3,1.26c-0.33,0.51-0.63,0.54-1.05,0.56
	c-0.42,0.02-1.14-0.23-1.42-0.65C149.95,137.43,150.23,136.65,150.32,136.16z M132.55,115.68c0.12-0.07,0.21-0.23,0.21-0.3
	c0-0.07-0.26,0.02-0.26,0.02S132.43,115.75,132.55,115.68z M118.55,118.13c-0.3-0.26-1.26-0.96-1.42-1.14s0-0.37,0.09-0.45
	c0.09-0.07,0.79,0.19,1.03,0.12c0.23-0.07-0.07-0.26-0.44-0.42c-0.38-0.16-0.98-0.07-1.36-0.21c-0.37-0.14-0.65-0.37-1.17-0.45
	c-0.52-0.07,0.82,0.91,1.19,1.29c0.38,0.37,2.55,2.17,2.55,2.17C119.28,118.95,118.86,118.39,118.55,118.13z M120.31,119.83
	c-0.05-0.12-0.14-0.26-0.4-0.23c0,0-0.09,0.12,0.09,0.21C120.19,119.9,120.35,119.95,120.31,119.83z M120.26,118.97
	c-0.19-0.09-0.33-0.07-0.33-0.07s-0.02,0.16,0.09,0.21C120.14,119.16,120.45,119.06,120.26,118.97z M120.66,115.98
	c-0.14-0.19-0.72-0.54-1.12-0.65c-0.4-0.12-2.52-0.4-3.18-0.61c-0.65-0.21-0.96-0.26-1.12-0.23c-0.16,0.02-0.16,0.09,0,0.19
	c0.17,0.09,1.17,0.3,1.52,0.37c0.35,0.07,0.54,0.12,0.68,0.09c0.14-0.02,0.54,0.02,0.84,0.42c0.3,0.4,0.61,0.07,0.82,0.14
	c0.21,0.07,0.58,0.33,0.79,0.63c0.21,0.3,0.19,0.72,0.84,1.19C120.73,117.52,120.8,116.17,120.66,115.98z M100.94,124.37
	c-0.11-0.06-0.12,0.23,0.02,0.16C101.1,124.46,100.99,124.39,100.94,124.37z M100.8,124.06c0.16,0.05,0.09-0.14,0.05-0.16
	C100.85,123.9,100.64,124.02,100.8,124.06z M101.41,125.35c0.07-0.12-0.56,0.12-0.72,0.35c0,0-0.07,0.4,0.12,0.3
	C100.99,125.91,101.34,125.47,101.41,125.35z M101.92,133.73c-0.02-0.3-0.12-1.4-0.21-1.56c-0.09-0.16-0.35-0.65-0.4-0.86
	c-0.05-0.21-0.28-0.47,0.05-0.91c0.33-0.44,0.63-1.14,0.56-1.5c-0.07-0.35-0.19-0.42-0.42-0.44c0,0-0.35,0.12-0.42,0.35
	c-0.07,0.24-0.4,0.72-0.4,1.08c0,0.35,0.26,1.35,0.26,1.56c0,0.21,0.26,1.78,0.31,2.08c0.05,0.3,0.21,0.86,0.35,1.15
	c0.14,0.28,0.31,0.86,0.35,0.72C101.99,135.25,101.95,134.04,101.92,133.73z M146.41,132.53c0,0-0.47-0.07-0.63,0.03
	c-0.16,0.1-0.17,0.54-0.12,0.7c0.05,0.16,0.2,0.75,0.12,0.98c-0.07,0.23-0.12,0.79-0.07,0.86c0.05,0.07,0.14-0.52,0.3-0.77
	c0.16-0.25,0.49-0.74,0.63-1.02C146.78,133.03,146.74,132.54,146.41,132.53z M146.17,141.72c-0.07,0.07,0,0.28,0,0.49
	c0.07,0,0.14,0,0.14,0.07c0.28,0.42-0.24,1.42,0.33,1.35c0.14,0,0-0.57-0.02-0.79c-0.07-0.56,0.26-1.07-0.23-1.68
	C146.17,141.3,146.45,141.51,146.17,141.72z M145.36,150.06c0-0.42,0-0.91,0.14-1.33c0.21-0.98,0.14-1.89,0.42-2.8
	c0.07-0.28,0.14-0.63,0.42-0.84c0.14-0.21-0.28-0.14-0.28-0.35c-0.49,0-1.05,0.07-1.19-0.42c-0.21-0.56,0-1.19,0.07-1.75
	c0.07-0.91,0.35-1.75,0.56-2.59c0.21-0.91,0.35-1.96-0.35-2.81c-0.07,0.7-0.63,1.26-1.33,1.4c-0.77,0.14-1.61-0.28-1.68-0.98
	c0-0.28,0.21-0.7,0.07-0.98c-0.07-0.28-0.48-0.16-0.76-0.02c-0.28,0.07-0.31,0.28-0.45,0.49c-0.13,0.13-0.27,0.38-0.48,0.58
	c-0.28,0.28-0.91,0.33-1.04,0.98c-0.57,2.9,0.13,5.54-0.29,8.41c-0.07,0.63,0,1.33,0,1.96c0,1.26-0.35,2.45-0.56,3.71
	c-0.14,0.56,0.07,1.19-0.14,1.75c-0.14,0.42-0.63,0.98-0.35,1.33c0.21,0.35,0.77,0.21,1.19,0.49c0.28,0.21,0.42,0.63,0.77,0.77
	c0.42,0.14,0.91,0.14,1.4,0c0.49-0.07,0.77-0.56,1.19-0.77c0.21-0.07,0.49-0.07,0.7-0.14c0.14-0.14,0.28-0.28,0.49-0.35
	c0.56-0.07,0.91,0.63,1.33,0.77c0.42,0.07,0.42-0.7,0.35-1.12c-0.07,0.21-0.28,0.49-0.49,0.35c-0.35-0.35-0.35-0.91-0.63-1.33
	c-0.07-0.14-0.14-0.35-0.07-0.56c0.21-0.91,0.35-1.82,0.56-2.73c0.07-0.07,0.21-0.14,0.35-0.28
	C145.5,150.76,145.43,150.34,145.36,150.06z M145.19,153.99c-0.07-0.28-0.14-0.56-0.21-0.84c-0.21,0.49-0.07,0.98,0.21,1.4
	c0.14,0.21,0.21,0.49,0.28,0.7C145.47,154.83,145.29,154.4,145.19,153.99z M144.06,156.86c-0.14,0.07-0.28-0.21-0.42,0
	c-0.07,0.14,0.05,0.35,0.21,0.35h0.21C144.13,157.14,144.06,157,144.06,156.86z M138.88,156.86l-0.07,0.07h0.14L138.88,156.86z
	 M142.96,136.96c0.24,0.09,0.54,0.12,0.61-0.03c0.07-0.16,0.14-0.42-0.07-0.42c-0.21,0-0.51-0.07-0.51-0.07s-0.3,0.12-0.3,0.24
	C142.7,136.8,142.71,136.87,142.96,136.96z M144.64,133.07c0.19-0.11,0.23-0.26,0.18-0.33c-0.05-0.07-0.16-0.09-0.16-0.09
	c-0.17-0.02-0.33-0.12-0.48,0.02c-0.14,0.14-0.07,0.54,0.05,0.98c0.12,0.44,0.39,1.89,0.53,1.93c0.14,0.03,0.33-0.07,0.35-0.58
	c0.02-0.51,0.16-1.03,0.1-1.31c-0.05-0.28-0.14-0.47-0.31-0.44C144.73,133.28,144.45,133.17,144.64,133.07z M144.33,136.52h-0.38
	c0,0-0.09,0.26,0.02,0.33c0.11,0.07,0.33,0.16,0.51,0.03C144.64,136.77,144.54,136.52,144.33,136.52z M143.96,134.37
	c-0.09,0-0.09,0.33-0.09,0.45c0,0.12-0.17,0.58-0.03,0.65c0.14,0.07,0.4,0.21,0.38,0.03C144.2,135.33,144.06,134.37,143.96,134.37z
	 M145.97,136.75c0.09-0.09-0.05-0.14-0.12-0.21c-0.07-0.07-0.05-0.09-0.14-0.05c0,0-0.07,0.23-0.02,0.28
	C145.74,136.82,145.88,136.83,145.97,136.75z M145.87,138.15c0,0-0.02,0.16,0,0.23c0.02,0.07,0.09,0.24,0.16,0.09
	C146.1,138.31,146.02,138.19,145.87,138.15z M145.54,142.21c0.07,0.28,0.07,0.56,0.14,0.84c0,0,0.21,0.12,0.28,0.12
	c0-0.35-0.02-0.98,0.02-1.33c0.07-0.63,0.3-1.94-0.09-1.8C145.68,140.74,145.39,141.51,145.54,142.21z M144.5,132.18
	c0.56-0.07,1.81,0.03,1.73-0.47c-0.1-0.56-0.28-1.17-0.56-1.66c-0.14-0.21-0.28-0.37-0.49-0.51c-0.21-0.07-0.56-0.42-0.63-0.14
	c-0.14,0.49,0.14,1.05,0.07,1.54c-0.07,0.49-0.77,0.28-0.91,0.56C143.5,131.84,144.08,132.23,144.5,132.18z M143.59,133.47
	c0,0-0.14-0.02-0.21,0.05c-0.07,0.07-0.18,1.02-0.23,1.1c-0.05,0.09-0.28,0.65-0.12,0.84c0.16,0.19,0.26,0.14,0.38,0.05
	c0.12-0.09,0.23-0.1,0.23-0.75C143.64,134.12,143.71,133.47,143.59,133.47z M142.98,131.48c-0.03,0.07,0.1,0.33,0.19,0.19
	c0.09-0.14,0.09-0.31,0.05-0.4c-0.03-0.09-0.02-0.4-0.17-0.42c0,0-0.1,0.12-0.1,0.24C142.94,131.21,143.01,131.41,142.98,131.48z
	 M142.17,124.49c0.09,0,0.44-0.02,0.54-0.03c0.1-0.02,0.21-0.25,0.09-0.26c-0.12-0.02-0.4,0.02-0.56,0
	C142.24,124.19,142.08,124.49,142.17,124.49z M142.66,125.25c0,0-0.16,0.21-0.03,0.23c0.12,0.02,0.17,0.05,0.24-0.03
	C142.94,125.36,142.92,125.18,142.66,125.25z M141.79,125.52c0.05,0.07,0.17,0.07,0.17,0.07l-0.02-0.12
	C141.94,125.47,141.73,125.45,141.79,125.52z M141.79,126.15c0.1,0.05,0.65,0.16,0.98,0.1c0.33-0.05,0.4-0.19,0.37-0.26
	c-0.03-0.07-1-0.02-1.16-0.03C141.98,125.96,141.68,126.1,141.79,126.15z M141.42,126.66c0.56,0.84,0.21,1.82,0.21,2.8
	c-0.07,0.28,0,0.63,0.21,0.77c0.49,0.28,1.05,0,1.54,0c0.28,0,0.16-0.47,0.07-0.7c-0.14-0.35,0.07-0.98-0.28-1.12
	c-0.35-0.14-0.98,0.14-0.98-0.28c0.07-0.28,0.63-0.07,0.98-0.28c0.28-0.21,0.21-0.63,0.42-0.91c0.07-0.14,0.07-0.42-0.07-0.49
	c-0.28-0.14-0.49,0.14-0.77,0.21c0,0.07,0.14,0.14,0.07,0.28c-0.07,0.14-0.26,0.21-0.28,0.14
	C142.33,126.5,141.84,126.73,141.42,126.66z M141.26,125.92c0.12,0.05,0.28-0.19,0.23-0.21c-0.05-0.02-0.16,0.03-0.16,0.03
	S141.14,125.87,141.26,125.92z M137.78,133.85c0.07,0.63,0.28,1.14,0.14,1.85c-0.07,0.21-0.21,0.56-0.28,0.77
	c0.07-0.07,0.31,0.14,0.37,0.07c0.21-0.14,0.28-0.28,0.35-0.49c0.14-0.28,0.63-0.28,0.7-0.63c0-0.28,0.07-0.56,0.21-0.77
	c0.21-0.42,0.32-0.68,0.6-1.1c0.14-0.07,0.28-0.24,0.35-0.03c0.07,0.77,0.1,1.63-0.04,2.4c0.56,0.28,1.1-0.21,1.66-0.28
	c0.42,0,0.38-0.68,0.44-1.05c0.07-0.42,0.42-0.91,0.14-1.19c-0.07-0.14-0.7,0.28-0.7-0.07c0-0.56,0.56-0.98,0.84-1.54
	c0.07-0.14,0-0.28-0.07-0.35c-0.42-0.14-0.98,0.21-1.26-0.28c-0.21-0.56-0.49-1.05-0.56-1.61c-0.07-0.14-0.21-0.21-0.28-0.21
	c-0.98,0.14-1.47,0.96-1.82,1.73c-0.34,0.56,0.11,1.1,0.07,1.29c-0.14,0.49-0.65,0.51-1.07,0.86
	C137.43,133.34,137.71,133.64,137.78,133.85z M132.08,158.19c0.42-0.21,0.7-0.49,1.12-0.63c0.77-0.28,1.68,0,2.45-0.42
	c0.07-0.77,0.91-1.19,1.05-1.89c0.07-0.42,0.35-0.7,0.49-1.05c0.07-0.14,0.21-0.56-0.07-0.49c-0.14,0-0.28,0.28-0.28,0.49
	c-0.14,0.21-0.35,0.42-0.56,0.63c-1.54,0.91-2.94,1.75-4.56,2.73c-0.42,0.28-0.91,0.56-1.4,0.91c-0.62,0.44-1.19,0.7-1.89,1.19
	c-0.84,0.56-1.75,0.98-2.52,1.68c-0.42,0.28-0.98,0.42-1.47,0.14c-0.28-0.21-0.49-0.42-0.77-0.56c-1.4-0.77-2.66-1.4-3.99-2.17
	c-0.14-0.14-0.35-0.21-0.49-0.21c-0.21-0.07-0.42-0.28-0.63-0.42c-0.21-0.07-0.42-0.35-0.7-0.21c0.28,0.35,0.56,0.77,0.35,1.26
	c-0.56,0.91-0.77,1.89-0.77,2.94c4.77,1.33,9.6,0.91,14.58,0c0.14,0,0.35-0.14,0.42-0.35c0.07-0.91-0.42-1.54-0.77-2.31
	C131.45,158.96,131.59,158.4,132.08,158.19z M117.5,158.82c0.14-0.21,0.14-0.56-0.07-0.7c-0.28-0.14-0.63-0.07-0.84-0.28
	c-0.21-0.28,0.07-0.42,0.35-0.49c-0.91-0.56-1.89-0.98-2.87-1.61c-0.35-0.28-0.7-0.63-0.91-1.05c-0.07-0.21,0-0.49-0.21-0.7
	c0.21-0.14,0.07-0.42,0.07-0.56c0-1.05-0.14-2.1,0-3.15c0-0.21-0.14-0.49-0.07-0.7c0.07-0.84-0.07-1.68,0-2.52
	c0.14-1.19,0.07-2.31,0.07-3.5c0-0.14,0.07-0.35,0.14-0.49c0.98-1.05,1.65-2.33,1.19-3.71c-0.07-0.21-0.07-0.49-0.21-0.63
	c-0.42-0.35-0.77-0.7-0.98-1.12c-0.07-0.14,0.07-0.35-0.21-0.56c0,0.14,0.14,0.28,0.07,0.35c-0.21,0.21-0.35,0.35-0.35,0.63v2.59
	v0.42c-0.07,4.48,0,8.97,0.14,13.45c0.42,0.35,0.28,0.98,0.63,1.4c0.14,0.21-0.07,0.49-0.28,0.63c0.28-0.35,0.84-0.35,1.26-0.28
	c0.42,0.14,0.77,0.56,0.7,0.98c0-0.14,0.07-0.14,0.14-0.21c0.14-0.07,0.35,0.07,0.42,0.07c0.35,0,0.84,0.07,0.7,0.49
	c-0.07,0.21-0.07,0.49-0.28,0.7c-0.28,0.14-0.49,0-0.77-0.07c0.35,0.21,0.77,0.35,0.91,0.77c0.07,0.21-0.14,0.63,0,0.63
	C116.73,159.66,117.29,159.24,117.5,158.82z M117.34,159.76c-0.14-0.03-0.26,0.09-0.37,0.37c-0.12,0.28-0.33,0.79-0.31,0.96
	c0.02,0.17,0.02,0.45,0.14,0.47c0.12,0.02,0.33-0.14,0.38-0.51c0.05-0.38,0.05-0.58,0.12-0.82
	C117.36,159.99,117.53,159.8,117.34,159.76z M111.62,156.51c0.14,0,0-0.21,0.14-0.21c-0.21-0.42-0.28-0.91-0.21-1.33
	c0-2.38-0.14-4.77,0.07-7.15c0-0.14-0.28-0.07-0.35-0.14c-0.14-0.28-0.14-0.56-0.14-0.84c0.07-0.35-0.07-0.84,0.21-1.12
	c0.07-0.07,0.28,0.07,0.28-0.07c0-0.56,0.21-1.19-0.14-1.54c-0.21-0.21-0.63-0.42-1.05-0.28c-0.07,0-0.35,0.14-0.42,0
	c-0.14-0.42-0.14-0.98-0.14-1.4c0.07-1.75,0-3.43,0.14-5.18c-0.49-0.28-0.84,0.14-1.33,0.21c-0.28,0-0.56-0.07-0.77-0.14
	c-0.35-0.28-0.7-0.28-1.05-0.56c-0.28-0.14-0.63,0-0.7,0.28c-0.07,0.49,0.14,1.05-0.07,1.33c-0.28,0.35-0.35-0.28-0.7-0.49
	c-0.28-0.14,0.07-0.49,0.21-0.77c0-0.07-0.14-0.07-0.21-0.07c-0.42,0.42-0.56,0.91-0.7,1.47c-0.07,0.35,0.14,0.63,0,0.98
	c-0.28,1.05-0.7,2.03-0.42,3.15c0,0.14-0.07,0.56,0.07,0.42c0.56-0.35,0-1.33,0.56-1.68c0,0,0.14,0.07,0.14,0.14
	c0.07,0.84-0.07,1.68,0,2.52c0.03,0.42,0.07,0.7,0.14,1.12c0,0.28-0.35,0.21-0.49,0c-0.14,0.35,0.07,0.77,0.28,1.05
	c0.14,0.35,0,0.77,0.07,1.12c0.21,0.77-0.21,1.47,0.07,2.24c0,0.14,0,0.35,0.21,0.35c0.14,0,0.21-0.14,0.28-0.28
	c0.28-0.77,0.63-1.54,0.98-2.31c0.28-0.7,0.07-1.47,0.49-2.1c0.14-0.14,0.42-0.14,0.49-0.28c0.07-0.35-0.28-0.77,0-1.12
	c0.21-0.14,0.42,0.07,0.49,0.28c0.28,1.82-0.49,3.57-0.28,5.39c0.07,0.7-0.07,1.33,0.07,2.03c0.07,0.14-0.07,0.35-0.28,0.28
	c-0.14-0.07-0.14-0.21-0.21-0.28c-0.14-0.63,0.07-1.26-0.21-1.89c-0.14,0.28-0.28,0.56-0.28,0.84c-0.21,1.26-0.77,2.31-1.26,3.36
	c0.35,0.49,0.28,0.98,0.28,1.54c-0.07,0.21-0.21,0.49-0.28,0.7c0.84,0.28,1.61,0.77,2.52,0.84c0.42,0,0.7,0.42,1.12,0.56
	c0.14,0.07,0.35,0.07,0.49,0C110.42,157.21,110.85,156.51,111.62,156.51z M111.13,157.02c0,0-0.4,0-0.42,0.12
	c-0.02,0.12-0.05,0.33,0.07,0.3c0.12-0.02,0.33-0.05,0.44-0.14C111.34,157.21,111.22,157.02,111.13,157.02z M106.2,156.98
	c0,0-0.14-0.12-0.33,0.12c-0.19,0.23-0.28,0.42-0.19,0.52c0.09,0.09,0.33,0.02,0.56-0.12C106.48,157.35,106.64,157.02,106.2,156.98z
	 M106.57,148.77c0.07-0.32,0.32-0.45,0.39-0.67c0.07-0.21,0.17-1.19,0.17-1.19c-0.17,0.14-0.6,1.51-0.7,1.65
	c-0.1,0.14-0.42,0.95-0.56,1.3c-0.14,0.35-0.31,0.67-0.49,0.81s-0.49,0.38-0.52,0.56c-0.03,0.17,0.59,1.37,0.59,1.37
	s0.35-0.35,0.49-0.56c0.14-0.21,0.56-1.82,0.67-2.07C106.71,149.71,106.5,149.08,106.57,148.77z M103.38,140.64
	c0.14,0.07,0.42-0.35,0.03-0.45C103.42,140.18,103.24,140.57,103.38,140.64z M103.35,137.33c0.21,0,0.21-0.4,0.28-0.54
	c0.07-0.14,0-1.28,0-1.28c-0.47-0.26-0.75,0.56-0.77,1.03C102.83,137,103.14,137.33,103.35,137.33z M103.84,152.41
	c0.03,0.28,0.39,4.13,0.56,4.2c0.17,0.07,0.03-1.16,0.03-1.65c0-0.49-0.84-6.27-0.84-6.27C103.42,148.7,103.8,152.13,103.84,152.41z
	 M110.31,137.5c-0.03,0.31-0.02,0.72,0.4,0.72v-0.14c-0.07,0-0.14,0-0.14-0.07c0-0.21,0.1-0.44-0.04-0.58
	C110.45,137.43,110.31,137.43,110.31,137.5z M110.57,136.95c0.09-0.1,0.1-0.12,0.1-0.19c-0.07,0-0.25-0.01-0.32,0.06
	C110.42,136.89,110.5,136.94,110.57,136.95z M110.21,142.29c0.14,0.21,0.63,0.16,0.98,0.07c0.28-0.07,0.7-0.21,0.63-0.49
	c-0.22-0.67-0.25-1.16-0.84-1.75c-0.07,0.63,0.07,1.33,0,1.96c0,0.07-0.07,0.14-0.14,0.14c-0.21,0-0.24-0.14-0.24-0.35
	c0-0.35,0-1.05-0.25-1.44C110.28,140.85,110.07,141.93,110.21,142.29z M112.11,134.65c-0.14-0.14-0.35-0.21-0.49-0.07
	c-0.35,0.35-0.14,0.84-0.14,1.19c0,0.35-0.14,0.98,0.21,1.05c0.49,0.14,0.48-0.7,0.56-1.12
	C112.32,135.35,112.32,134.93,112.11,134.65z M112.32,155.67c0.21,0.11,0.28-0.21,0.28-0.21s-0.07-0.24-0.28-0.38
	C112.32,155.07,112.11,155.57,112.32,155.67z M111.34,137.45c0.07,0.21-0.07,0.56,0.21,0.7c0-0.07-0.04-0.08,0-0.14
	C111.69,137.8,111.48,137.59,111.34,137.45z M111.34,157.8c0.07,0.09,0.42,0.23,0.61,0.26c0.19,0.02,0.61,0.19,0.63,0.4
	c0.02,0.21,0.21,0.49,0.26,0.58c0.05,0.09,0.14,0.47,0.42,0.45c0.28-0.02,0.42-0.26,0.3-0.35c-0.12-0.09-0.28-0.49-0.28-0.61
	c0-0.12-0.35-0.54-0.52-0.56c-0.16-0.02-1.1-0.26-1.24-0.42C111.45,157.45,111.27,157.7,111.34,157.8z M114.35,157.77
	c-0.07-0.14,0.14-0.35,0.07-0.56c-0.14-0.35-0.56-0.42-0.91-0.28c-0.07,0-0.07,0.14-0.07,0.14c0.21,0,0.43-0.01,0.56,0.07
	c0.35,0.21,0.21,0.63,0.14,0.98c0.28-0.07,0.63-0.07,0.91,0C114.77,158.05,114.49,157.98,114.35,157.77z M115.03,159.55
	c-0.07,0.09,0.09,0.09,0.23,0c0.14-0.1,0.07-0.31,0.05-0.49c-0.02-0.19-0.3-0.37-0.4-0.3c-0.07,0.05,0.09,0.28,0.19,0.42
	C115.19,159.32,115.1,159.45,115.03,159.55z M112.41,160.36c-0.4,0.07-0.51,0.21-0.33,0.33c0.19,0.12,1.4,0.4,1.8,0.54
	c0.4,0.14,1.26,0.58,1.45,0.49c0.19-0.09,0.28-0.54,0.4-0.72c0.12-0.19,0.54-0.65,0.44-0.75c-0.09-0.09-0.98,0.12-1.52,0.09
	c-0.54-0.02-1.35-0.07-1.35-0.07C113.02,160.29,112.81,160.29,112.41,160.36z M112.88,135.74c0,0.01-0.01,0.02-0.01,0.03
	c-0.06,0-0.13,0-0.13,0.06v0.14c0,0.07,0.07,0.07,0.14,0.07c0.14-0.14,0.28-0.21,0.35-0.42c0.09-0.27,0.28-0.28,0.42-0.28
	c0.11-0.05,0.28-0.07,0.43-0.11c0.05,0,0.12,0.01,0.16-0.01c0.21-0.07,0.32-0.18,0.58-0.31c0.14-0.07,0.35-0.02,0.42-0.09
	c0.56-0.49,1.14-1.12,1.56-1.75c0.12-0.3,0.46-0.53,0.4-0.85c0.01-0.01,0.01-0.02,0.02-0.04c0-0.07,0-0.21-0.07-0.21
	c-0.33,0.08-0.47,0.34-0.59,0.6c-0.22,0.26-0.44,0.57-0.67,0.88c-0.37,0.39-0.7,0.79-1.18,1.1c-0.35,0.21-0.63,0.35-0.98,0.56
	c-0.28,0.14-0.63-0.07-0.84,0.21C112.81,135.48,112.87,135.61,112.88,135.74z M117.85,136.96c-0.07,0-0.07,0.07-0.07,0.14
	c0.21,0.42,0.7,0.28,1.05,0.49c0.14,0.14-0.14,0.28-0.14,0.42c0.07,0.21,0.35,0.14,0.56,0.21c0.48,0.16,0.84,0.14,1.26,0.42v0.21
	c-0.77,0.28-1.47-0.56-2.31-0.28c0.14,0.21,0.63,0.14,0.49,0.42c-0.07,0.14-0.35-0.07-0.56,0c-0.07,0.07-0.07,0.14-0.07,0.21
	c0.7,0.56,1.61,0.07,2.45,0.35c-0.21,0.63-1.05,0.35-1.54,0.56c0.35,0.28,1.33-0.14,0.98,0.35c-0.42,0.56-1.33,0-1.89,0.56
	c0.21,0.21,0.49,0,0.77,0.07c0.35,0.21,0.77,0.21,1.12,0.42c0.14,0.07,0.35,0,0.56,0c0,0.07,0.14,0.21,0.07,0.28
	c-0.7,0.49-1.47,0.56-2.03,1.19c-0.07,0.14-0.07,0.42,0.14,0.49c0.35,0,0.7-0.49,0.84-0.21c0.28,0.42-0.63,0.7-0.91,1.19
	c0,0.07,0,0.21,0.07,0.21c0.42-0.07,0.63-0.56,1.05-0.63c0.35,0,0.7-0.14,0.91-0.42c0.42-0.28,0.98-0.14,1.47-0.28
	c0.42-0.21,0.91-0.35,1.19-0.77c0.28-0.28,0.84-0.42,0.63-0.84c-0.21-0.35-0.63-0.56-0.84-0.91c-0.21-0.42-0.21-0.84-0.14-1.26
	c0.21-1.05,1.26-1.75,2.38-1.61c0.7,0.14,1.19,0.63,1.47,1.19c0.28,0.42,0.28,0.91,0.14,1.4c-0.14,0.28-0.42,0.49-0.42,0.7
	c-0.07,0.28,0.35,0.21,0.56,0.35c0.49,0.28,0.98,0.42,1.47,0.77c0.14,0.07,0.42,0.07,0.56,0.14c0.35,0.42,0.77,0.77,1.12,1.26
	c0.35,0.42,0.84,0.49,1.26,0.84c0.07,0,0.21,0,0.21-0.07c-0.07-0.42-0.14-0.84-0.14-1.26c-0.07-0.14-0.21-0.28-0.35-0.35
	c-0.77-0.14-1.26-0.7-1.96-0.84c0-0.07-0.14-0.14-0.07-0.28c0.07-0.14,0.21-0.07,0.35-0.07c0.7,0.14,1.4,0.91,2.03,0.49
	c-0.56-0.35-1.19-0.28-1.75-0.56c-0.14-0.07-0.28-0.21-0.49-0.35c0-0.07-0.07-0.28,0.07-0.28c0.84,0.07,1.54,0.84,2.45,0.63
	c0.14-0.07,0.21-0.28,0.14-0.42c-0.91-0.63-2.24-0.07-3.22-0.56c-0.14-0.07-0.07-0.28,0.14-0.35c0.49,0,0.98,0.07,1.47,0.21
	c0.35,0.07,0.7,0.07,1.05,0.14c0.07,0,0.14-0.07,0.14-0.14c0.07-0.21-0.07-0.42-0.28-0.49c-0.35,0-0.7-0.07-1.05-0.21
	c-0.35-0.07-0.77,0.14-1.12,0c-0.07,0-0.07-0.07-0.07-0.14c0.07-0.14,0.28-0.21,0.35-0.14c0.77,0,1.47,0,2.24-0.14
	c0.21-0.07,0.49,0,0.63-0.21c0.07-0.21-0.14-0.21-0.21-0.28c-0.98-0.07-1.96,0.35-2.94,0.14c0,0,0-0.21,0.07-0.21
	c0.7-0.07,1.33-0.21,1.96-0.35c0.07-0.07,0.28-0.28,0.28-0.28c-0.98-0.91-2.17-0.07-3.08,0.42c-0.14,0.14-0.35,0.07-0.49,0.07
	c-0.07,0-0.07-0.07-0.07-0.14c0.49-0.56,1.12-0.77,1.75-1.12c0.14-0.07,0.35-0.42,0.14-0.42c-0.49-0.14-0.91,0.35-1.33,0.7
	c-0.07,0.07-0.21,0.14-0.35,0.07c0-0.07,0-0.14-0.07-0.14c0.49-0.63,1.19-0.98,1.61-1.68c0-0.07,0.07-0.28,0.07-0.35
	c-0.28-0.28-0.7,0.14-0.84,0.42c-0.35,0.42-0.84,0.77-1.05,1.33h-0.28v-0.28c0.14-0.28,0.49-0.42,0.56-0.63
	c0.21-0.42,0.7-0.63,0.7-1.12c0-0.07-0.14-0.07-0.14-0.14c0-0.14,0-0.28,0.14-0.42c0.07-0.07-0.07-0.14-0.07-0.14
	c-0.42,0.49-0.56,1.26-1.12,1.54c-0.21,0.07-0.28,0.28-0.56,0.49c-0.07,0-0.21,0.07-0.28-0.07c-0.07-0.56,0.42-0.91,0.56-1.4
	c0-0.14,0.14-0.35,0.07-0.49c0-0.07-0.07-0.07-0.14-0.07c-0.63,0.42-0.7,1.19-0.91,1.89c-0.07,0.07-0.28,0.07-0.35-0.07
	c0-0.42,0.28-0.77,0.28-1.19c0.07-0.35,0.35-0.7,0.14-1.12c-0.14,0.14-0.28,0.35-0.42,0.49c-0.14,0.14-0.14,0.42-0.28,0.56
	c-0.07,0.07,0,0.21,0,0.35c-0.07,0.21-0.28,0.07-0.42,0.14c-0.35,0.07,0,0.63-0.35,0.7c-0.07,0.07-0.21-0.07-0.28-0.21
	c-0.07-0.56,0.14-1.19-0.21-1.68c-0.7,0.63-0.07,1.54,0.14,2.31c0,0.14,0,0.35-0.07,0.49c-0.49-0.35-0.35-1.12-0.84-1.4
	c-0.14-0.07-0.49,0.07-0.63-0.21c-0.21-0.42-0.42-0.77-0.63-1.19c-0.14-0.28-0.63-0.42-0.77-0.07c-0.07,0.28,0.21,0.49,0.42,0.7
	c0.42,0.56,0.98,1.05,1.4,1.68c0,0.07,0,0.21-0.07,0.21c-0.49,0-0.7-0.49-0.91-0.77c-0.21-0.28-0.35-0.49-0.56-0.7
	c-0.21-0.14-0.84-0.21-0.7,0c0.35,0.7,1.12,1.12,1.75,1.68v0.28c-0.56,0.21-0.77-0.49-1.12-0.77c-0.28-0.21-0.42,0.07-0.56,0.21
	c0.21,0.14,0.28,0.35,0.42,0.49c0.35,0.28,0.84,0.35,1.05,0.7c0.21,0.21-0.28,0.42-0.49,0.21c-0.14-0.14-0.35-0.21-0.56-0.35
	c-0.07,0-0.14,0.07-0.14,0.07c0.14,0.14,0.07,0.42-0.07,0.42c-0.77-0.07-1.4-0.7-2.1-0.98c-0.21-0.07-0.35-0.07-0.56-0.14
	c-0.07-0.07-0.07-0.21-0.21-0.28C118.34,137.03,118.13,136.89,117.85,136.96z M118.41,132.4c0.07,0,0.14-0.14,0.14-0.21
	s-0.14-0.07-0.21-0.07c-0.07,0-0.07,0.07-0.07,0.14C118.34,132.33,118.34,132.4,118.41,132.4z M118.76,135.14
	c0,0.07,0.07,0.14,0.14,0.14c0.14-0.07,0.21-0.21,0.28-0.35c0.07-0.14-0.07-0.28-0.21-0.28
	C118.76,134.72,118.69,134.93,118.76,135.14z M118.91,132.4c0.14,0,0.28,0,0.28-0.14c0-0.16-0.28-0.14-0.35,0
	C118.84,132.33,118.84,132.4,118.91,132.4z M120.31,132.47c0.05-0.05,0-0.14,0-0.21c0-0.07-0.07-0.07-0.14-0.07
	c-0.07,0.07-0.14,0.21-0.14,0.28C120.1,132.61,120.24,132.54,120.31,132.47z M119.96,134.93c-0.07-0.07-0.14,0-0.14,0.07
	c-0.07,0.14,0.07,0.21,0.14,0.28c0.14,0.07,0.14-0.07,0.14-0.14C120.1,135,120.03,135,119.96,134.93z M119.75,133.45
	c-0.07,0-0.21,0.14-0.21,0.21c0,0.21,0.28,0.28,0.42,0.21C120.13,133.79,119.96,133.45,119.75,133.45z M119.82,132.33
	c-0.07-0.07-0.07-0.21-0.21-0.14c-0.14,0.07-0.21,0.28-0.07,0.35c0.07,0,0.14,0.07,0.21-0.14L119.82,132.33z M119.4,136.61
	c-0.21,0.28,0.28,0.63,0.56,0.77c0.49,0.21,0.91,0.7,1.54,0.56c-0.14-0.07-0.21-0.14-0.35-0.28
	C120.68,137.19,119.88,135.98,119.4,136.61z M120.8,132.68c0.14,0,0.21-0.07,0.28-0.21c0.11-0.23-0.07-0.21-0.14-0.28
	C120.66,132.12,120.59,132.61,120.8,132.68z M121.85,132.47c0.06-0.04,0.07,0,0.14,0c0,0.07,0,0.14,0.07,0.14h0.21
	c0.21-0.07,0.21-0.35,0-0.42c-0.07,0-0.21,0.14-0.28,0.14c-0.28-0.35-0.63-0.07-0.63,0.14
	C121.36,132.68,121.64,132.61,121.85,132.47z M122.97,134.5c-0.22,0.37,0.14,0.91,0.63,1.19c-0.09-0.09-0.1-0.43-0.1-0.59
	C123.47,135.24,123.29,133.97,122.97,134.5z M123.88,132.61c0.07-0.07,0.07-0.14,0.07-0.21c0-0.07,0-0.21-0.07-0.21
	c-0.21,0-0.49,0.14-0.49,0.35C123.46,132.75,123.74,132.68,123.88,132.61z M123.18,132.33c-0.07-0.21-0.35-0.21-0.42,0
	c0,0.07-0.07,0.21,0.07,0.28c0.07,0,0.21,0,0.28-0.07C123.16,132.49,123.11,132.4,123.18,132.33z M124.44,132.68
	c0.14,0,0.35-0.07,0.42-0.21c0.07-0.14,0.07-0.28-0.07-0.35c-0.14-0.07-0.28,0.07-0.42,0.07
	C124.16,132.33,124.23,132.61,124.44,132.68z M125.28,132.68c0.21,0,0.42-0.14,0.35-0.42c-0.02-0.07-0.07-0.14-0.14-0.14
	c-0.14,0-0.28,0.07-0.35,0.21C125.07,132.47,125.14,132.68,125.28,132.68z M126.33,132.68c0.14-0.07,0.28-0.21,0.28-0.35
	c0-0.35-0.49-0.21-0.63,0v0.21C126.05,132.68,126.19,132.76,126.33,132.68z M127.38,135.91c0.21-0.35,0.72-0.79,0.89-1.15
	c0.11-0.23,0.28-0.37,0.07-0.56C127.64,134.34,127.73,135.42,127.38,135.91z M127.87,132.68c0.28,0.07,0.7-0.14,0.63-0.42
	c-0.09-0.35-0.56-0.21-0.77,0.07C127.66,132.47,127.73,132.61,127.87,132.68z M127.38,132.12c-0.21,0-0.56,0.14-0.49,0.42
	c0.07,0.14,0.21,0.21,0.35,0.14c0.14-0.07,0.14-0.21,0.21-0.35C127.48,132.27,127.45,132.12,127.38,132.12z M129.42,132.4
	c0.07-0.14,0.21-0.28,0-0.35c-0.28-0.07-0.63,0.14-0.63,0.35C128.79,132.75,129.28,132.68,129.42,132.4z M130.19,132.12
	c-0.21-0.07-0.42,0-0.56,0.21c-0.07,0.14,0,0.28,0.14,0.35c0.14,0,0.28,0,0.35-0.07C130.23,132.5,130.4,132.26,130.19,132.12z
	 M130.26,134.58c0,0.14-0.21,0-0.21,0.14c0,0.07,0,0.21,0.07,0.21c0.14,0,0.21,0,0.28-0.14
	C130.46,134.66,130.33,134.65,130.26,134.58z M130.54,135.21c0.07,0.14,0.14-0.07,0.21,0c0-0.07,0.07-0.07,0.07-0.14
	c0-0.25-0.07-0.21-0.14-0.28c-0.07-0.07-0.14,0-0.14,0.07C130.75,135,130.47,135.07,130.54,135.21z M134.95,152.73
	c0.28-0.21,0-0.63,0.14-0.98c0.14-0.42,0-0.82,0-1.26c0-0.21,0.14-0.56-0.07-0.56c-0.56-0.14-1.12,0-1.68,0
	c-1.05,0.07-2.17,0.28-3.22-0.14c0.14,0.28,0.14,0.63,0.35,0.84c0.14,0.14,0.42,0,0.56,0.21c0.07,0.14-0.07,0.21-0.14,0.35
	c-0.07,0.14,0.07,0.21,0.14,0.28c0.07,0.28-0.14,0.49-0.35,0.49c-0.28,0.07-0.56,0.14-0.84,0.14c0.21,0,0.56-0.14,0.7,0.14
	c0.07,0.21-0.14,0.28-0.28,0.42c-0.35,0.21-0.7,0.35-1.05,0.63c-0.07,0-0.28,0.07-0.35,0.07c-0.07,0.07-0.14,0.35-0.07,0.42
	c0.28,0.07,0.56,0.14,0.84,0.07c0.42-0.28,0.49-1.19,1.05-0.98c0.28,0.07,0.56,0.35,0.84,0.14c0.14-0.14,0.28-0.42,0.49-0.56
	c0.42-0.14,0.28,0.28,0.42,0.49c0.14-0.14,0.28-0.21,0.42-0.14c0.14,0.07,0.21,0.21,0.21,0.42c0,0.14,0.21,0.07,0.28,0.07
	c0.21-0.07,0.21-0.35,0.35-0.42c0.21-0.07,0.49,0.21,0.7,0.14C134.53,152.87,134.81,152.87,134.95,152.73z M133.97,154.83
	c-0.07,0-0.14,0.07-0.14,0.14c0.07,0.28,0.56,0.35,0.56,0.14C134.39,154.89,134.18,154.9,133.97,154.83z M133.27,155.39
	c0,0.07,0.21,0.14,0.28,0.28c0.07-0.07,0.21-0.21,0.21-0.28C133.76,155.11,133.2,155.18,133.27,155.39z M132.57,155.67
	c-0.07,0.14,0.07,0.21,0.14,0.28c0.14,0,0.28,0.07,0.28-0.14C132.99,155.67,132.71,155.46,132.57,155.67z M132.15,155.95
	c-0.07,0-0.14,0.14-0.14,0.14c0.14,0.21,0.42,0.28,0.42,0.07C132.43,156.06,132.29,155.95,132.15,155.95z M131.73,156.72
	c0,0,0.07-0.07,0.07-0.14c0-0.1,0.07-0.14,0.07-0.21c-0.14-0.21-0.42-0.21-0.56,0C131.45,156.44,131.45,156.79,131.73,156.72z
	 M130.68,156.65c-0.21,0.07-0.14,0.28,0,0.42c0.21,0.07,0.35,0.14,0.56,0c0.08-0.05,0.07-0.07,0.07-0.14
	C131.17,156.72,130.96,156.58,130.68,156.65z M130.19,157.07c-0.07,0-0.07,0.07-0.07,0.14c0.07,0.14,0.42,0.35,0.42,0.07
	C130.54,157.13,130.33,157.07,130.19,157.07z M129.28,156.72v-0.14c0-0.07-0.07-0.07-0.14-0.07c-0.14,0,0,0.21-0.14,0.21
	c0.07,0.07,0.07,0.14,0.14,0.14C129.21,156.86,129.28,156.79,129.28,156.72z M129.14,157.84c-0.14-0.07-0.42,0-0.35,0.14
	c0,0.14,0.35,0.28,0.49,0.14C129.39,158.01,129.21,157.91,129.14,157.84z M129.49,154.97c0.36-0.12,0.14-0.49-0.07-0.63
	c-0.21-0.07-0.28,0.21-0.35,0.28C129,154.83,129.28,155.04,129.49,154.97z M129.49,157.77c0.07,0.14,0.35,0.28,0.42,0
	c0.03-0.14-0.21-0.28-0.28-0.28C129.49,157.42,129.42,157.63,129.49,157.77z M128.72,155.18c0.03-0.06,0-0.14,0-0.21
	c-0.14-0.28-0.42-0.14-0.49,0.07C128.22,155.25,128.58,155.46,128.72,155.18z M128.58,158.39c0,0-0.09,0.07-0.02,0.14
	C128.63,158.6,128.72,158.44,128.58,158.39z M128.38,149.19c0.21-0.28,0.28-0.7,0.56-0.91c0.21-0.14,0.56-0.28,0.7,0
	c0,0.07-0.14,0.14-0.21,0.21c0,0.07,0.07,0.14,0.07,0.14c0.14-0.07,0.35-0.07,0.42-0.21c0.14-0.21-0.14-0.35-0.28-0.49
	c-0.21-0.14-0.63,0-0.7,0.14c-0.21,0.14-0.42,0.49-0.63,0.77c-0.28,0.35-0.63,0.7-0.98,1.12c-0.21,0.14-0.49,0.07-0.77,0.07
	c-0.35,0.07-0.77,0.07-1.12,0.07c-0.7,0-1.47-0.14-2.17,0.14c-0.14,0.07,0,0.49-0.28,0.63c-0.35,0.21-0.56,0.56-0.91,0.7h-0.49
	c0.63,0.35,0.35,0.98,0.14,1.47c-0.07,0.21-0.28,0.28-0.49,0.21c-0.07-0.07-0.14-0.14-0.21-0.21c-0.14-0.28,0.14-0.7-0.07-0.98
	c-0.07-0.07-0.21,0.07-0.28,0.07c0.07,0.14-0.07,0.21-0.07,0.28c-0.28,0.28-0.35,0.56-0.63,0.84c-0.21,0.14-0.42,0.07-0.49-0.14
	c-0.07-0.56,0.21-1.05,0.63-1.47c0.07-0.07,0-0.14-0.07-0.14c-0.42,0-0.91,0.14-1.26-0.07c-0.28-0.14-0.7-0.49-0.7-0.84
	c0-0.14,0-0.42-0.14-0.49c-0.21-0.07-0.42,0.07-0.63,0.14c-0.49,0.14-0.98,0.14-1.47,0.14c-0.21,0-0.63-0.07-0.63,0.14
	c-0.14,1.05-0.21,2.1,0,3.15c0,0.21,0.21,0.63,0.49,0.49c0.28-0.14,0.21-0.56,0.56-0.56c0.21,0,0.35,0.21,0.56,0.14
	c0.14-0.14,0.35-0.28,0.56-0.21c0.21,0.14,0.49,0.14,0.7,0c0.21-0.14,0.49,0.14,0.77,0.14c0.35,0,0.77-0.14,1.12-0.07
	c0.28,0.07,0.49,0,0.77-0.07c0.14,0,0.14,0.21,0.21,0.28c0.28,0.07,0.49-0.28,0.77-0.21c0.42,0.14,0.63,0.7,1.05,0.7
	c0.91,0.07,1.82-0.56,2.73-0.14c0.28-0.35,0.7-0.63,1.12-0.84c0.21-0.14,0.49-0.28,0.7-0.35c0.28-0.07,0.42-0.42,0.7-0.35
	c0.21,0.07,0.21,0.56,0.35,0.35c0.21-0.21,0.35-0.63,0.21-0.91c-0.14-0.28-0.42-0.49-0.77-0.63c-0.14-0.07-0.21-0.35-0.28-0.49
	C127.26,150.17,127.96,149.75,128.38,149.19z M128.3,149.85c-0.28,0.28-0.28,0.63-0.14,0.98c0.07-0.07,0.14,0.07,0.14-0.07
	C128.3,150.48,128.43,150.13,128.3,149.85z M127.67,154.97c0.21,0.07,0.21-0.21,0.21-0.35c0-0.22-0.07-0.42-0.28-0.49
	c-0.07,0-0.21,0.07-0.28,0.14C127.24,154.55,127.38,154.83,127.67,154.97z M127.24,158.96c-0.07,0-0.07,0.07-0.07,0.14
	c0.07,0.07,0.14,0.14,0.21,0.14s0.14,0,0.14-0.07C127.52,159.03,127.38,158.96,127.24,158.96z M127.81,158.82
	c0.07,0.14,0.21,0.07,0.28,0.07c0-0.07,0-0.14-0.07-0.21h-0.14C127.81,158.68,127.81,158.75,127.81,158.82z M126.68,157.25
	c-0.21-0.21-0.63-0.31-0.84-0.53c-0.21-0.07-0.35,0.14-0.56,0.21c-0.63,0-1.19,0.07-1.75,0.28c0.14,0.35,0.42,0.07,0.63,0.21
	c0.21,0.14,0.53,0.19,0.74,0.19c0.07,0.07,0.33-0.28,0.4-0.21c0.28,0.07,0.56-0.05,0.84,0.16
	C126.28,157.63,126.54,157.25,126.68,157.25z M126.12,159.59c-0.14,0.07-0.21,0.21-0.14,0.35c0.07,0.07,0.14,0.14,0.21,0.21
	c0.07,0,0.07-0.07,0.14-0.07c0.07,0,0.14,0,0.14-0.07C126.54,159.81,126.33,159.59,126.12,159.59z M125.14,160.22
	c-0.14-0.07-0.28,0-0.35,0.14c-0.07,0.14,0,0.35,0.14,0.42c0.14,0,0.21,0.07,0.35-0.14C125.45,160.4,125.28,160.3,125.14,160.22z
	 M124.02,160.01c-0.07,0.14,0,0.28,0.14,0.35c0.14,0.07,0.21-0.14,0.35-0.14c0-0.07,0.07-0.14,0.07-0.14
	C124.51,159.87,124.16,159.8,124.02,160.01z M123.25,159.66c-0.14,0.28,0.21,0.49,0.42,0.35c0.08-0.06,0.21,0,0.21-0.14
	c0-0.14,0-0.35-0.14-0.42C123.53,159.38,123.39,159.52,123.25,159.66z M123.46,155.04c0.21,0,0.35-0.14,0.49-0.28
	c-0.28-0.14-0.7,0-0.7,0.28C123.18,155.18,123.39,155.04,123.46,155.04z M125,155.11c0.07,0,0.07-0.07,0.07-0.14
	c-0.14-0.21-0.14,0.07-0.21,0.07C124.93,155.04,124.93,155.11,125,155.11z M126.54,154.9c0.14-0.14,0.21-0.28,0.35-0.42
	c0.14-0.21-0.14-0.35-0.35-0.28c-0.14,0.07-0.14,0.21-0.14,0.35c-0.14,0.28-0.56,0.28-0.56,0.63c0.07,0.28,0.42,0.42,0.7,0.28
	C126.68,155.39,126.4,155.11,126.54,154.9z M126.68,159.52c0.07,0.07,0.14,0.07,0.21,0.07s0.07-0.07,0.07-0.14
	c-0.07-0.07-0.07-0.07-0.14-0.14c-0.07,0-0.14,0-0.14,0.07V159.52z M122.62,159.03c-0.07,0.07-0.28,0.21-0.21,0.35
	c0.07,0.07,0.21,0.14,0.35,0.14c0.21,0,0.42-0.14,0.35-0.35C123.11,158.96,122.83,158.89,122.62,159.03z M122.13,155.46
	c0.28-0.07,0.07-0.35-0.07-0.42c-0.49-0.07-0.91,0.14-1.4,0.14c-0.07,0-0.07-0.14-0.14-0.14c-0.42,0-0.63,0.28-0.98,0.49
	c0,0.07,0,0.21,0.07,0.21c0.49-0.07,0.98-0.14,1.47-0.21C121.42,155.48,121.78,155.53,122.13,155.46z M121.22,158.26
	c-0.07,0.07-0.21,0.14-0.14,0.28c0.07,0.07,0.14,0.21,0.28,0.14s0.35-0.07,0.35-0.28C121.64,158.26,121.43,158.12,121.22,158.26z
	 M120.17,158.05c0.07,0.14,0.28,0.28,0.42,0.28c0.21,0,0.49-0.14,0.35-0.42c-0.14-0.28-0.42-0.14-0.63-0.07
	C120.24,157.91,120.09,157.91,120.17,158.05z M120.45,156.3h0.21c0.07,0,0.14-0.07,0.07-0.14c-0.14-0.07-0.35-0.14-0.49-0.07v0.14
	C120.31,156.23,120.35,156.3,120.45,156.3z M120.03,157.28c-0.28-0.14-0.56,0-0.7,0.28c0,0.07,0.07,0.14,0.14,0.21
	c0.11,0.11,0.21,0.21,0.35,0.14C119.96,157.77,120.31,157.49,120.03,157.28z M121.78,158.96c0.07,0.14,0.21,0.21,0.35,0.14
	c0.23-0.11,0.14-0.49-0.07-0.49C121.92,158.68,121.92,158.89,121.78,158.96z M118.41,157.21c0,0.07,0.14,0.14,0.21,0.21
	c0.11,0.11,0.28,0,0.42-0.07c0.14-0.14,0.21-0.42,0-0.49C118.83,156.79,118.34,156.86,118.41,157.21z M118.34,156.44
	c-0.21-0.07-0.42-0.07-0.56,0.14c-0.07,0.14-0.07,0.35,0.21,0.35c0.21,0,0.35-0.07,0.42-0.21
	C118.41,156.65,118.49,156.51,118.34,156.44z M117.5,156.02c-0.28-0.07-0.63,0-0.56,0.28c0,0.21,0.35,0.35,0.56,0.21
	c0.08-0.05,0.14-0.07,0.14-0.14C117.71,156.23,117.64,156.09,117.5,156.02z M116.52,155.46c-0.07,0.14-0.35,0.14-0.42,0.35
	c-0.07,0.28,0.28,0.49,0.49,0.28c0.07-0.07,0.21-0.21,0.21-0.35C116.73,155.6,116.59,155.6,116.52,155.46z M115.68,155.11
	c-0.21-0.07-0.42,0.14-0.42,0.35c0.07,0.07,0.07,0.28,0.28,0.21c0.07-0.02,0.21,0.07,0.28-0.07
	C115.89,155.39,115.82,155.18,115.68,155.11z M114.42,147.26c-0.07-0.35-0.35-0.21-0.56-0.21c-0.07,0-0.07,0.14-0.07,0.21
	c0.14,0.14,0.28,0.21,0.49,0.07C114.34,147.29,114.42,147.33,114.42,147.26z M114.35,147.89c-0.07-0.14-0.21-0.14-0.35-0.14
	c-0.07,0-0.21,0-0.21,0.07c-0.07,0.28,0.14,0.49,0.42,0.42C114.35,148.17,114.42,148.03,114.35,147.89z M114.42,146.28
	c-0.14-0.28-0.56-0.28-0.7-0.07c-0.14,0.35,0.28,0.56,0.56,0.49C114.43,146.66,114.49,146.42,114.42,146.28z M114.21,145.72
	c0,0,0.07-0.07,0.07-0.14c0-0.14-0.07-0.14-0.14-0.21c-0.14-0.07-0.42,0-0.42,0.14C113.72,145.72,114,145.72,114.21,145.72z
	 M113.72,144.04c0.07,0.14,0.28,0.21,0.42,0.14c0,0,0.07-0.07,0.07-0.14s-0.07-0.14-0.14-0.14
	C113.93,143.83,113.72,143.9,113.72,144.04z M114.21,143.62c0.07-0.07,0.28-0.07,0.21-0.21c-0.07-0.14-0.21-0.21-0.35-0.14
	c-0.07,0-0.07,0.07-0.07,0.14C114.07,143.48,114.14,143.55,114.21,143.62z M113.79,145.02c0.21,0,0.49,0.35,0.63,0
	c0.08-0.21-0.07-0.42-0.28-0.49c-0.14,0-0.35-0.07-0.42,0.07C113.72,144.74,113.65,144.95,113.79,145.02z M113.79,149.15
	c0.14,0.14,0.42,0.35,0.56,0.07c0.1-0.2,0.07-0.56-0.21-0.63c-0.14,0-0.35-0.07-0.42,0.07C113.65,148.8,113.72,149.01,113.79,149.15
	z M114.21,149.64c-0.14-0.07-0.49-0.07-0.49,0.21c0.07,0.14,0.21,0.21,0.42,0.21C114.42,150.06,114.35,149.71,114.21,149.64z
	 M114.14,150.9c0.07,0,0.21-0.14,0.14-0.28c-0.07-0.21-0.35-0.21-0.49-0.14C113.51,150.76,114,150.9,114.14,150.9z M113.86,151.32
	c-0.14,0.07-0.07,0.21-0.07,0.28c0,0.07,0.14,0.07,0.21,0.07c0.07,0,0.14,0,0.14-0.07v-0.14
	C114.07,151.39,113.93,151.32,113.86,151.32z M113.72,152.52c0.07,0.14,0.21,0.14,0.35,0.21c0.2,0.1,0.28-0.14,0.28-0.21
	c-0.07-0.21-0.07-0.49-0.35-0.49C113.79,152.03,113.65,152.31,113.72,152.52z M113.79,153.15v0.14c0,0.07,0,0.21,0.07,0.21
	c0.07,0,0.21,0.07,0.28-0.07C114.21,153.22,114,153.08,113.79,153.15z M113.79,154.27c0.14,0.21,0.42,0.21,0.56,0
	c0.07-0.07-0.07-0.14-0.07-0.21c0-0.07,0-0.14-0.07-0.14C114,153.99,113.65,153.99,113.79,154.27z M114.28,154.69
	c0.14,0.21,0.21,0,0.28-0.07c0.05-0.05-0.07-0.07-0.14-0.07C114.35,154.62,114.28,154.69,114.28,154.69z M114.63,137.24
	c-0.02-0.07,0-0.21-0.07-0.21c-0.21,0-0.35-0.14-0.42,0.07c-0.07,0.21,0,0.56,0.28,0.49C114.49,137.52,114.7,137.45,114.63,137.24z
	 M114.21,136.26c-0.07-0.07-0.07-0.14-0.07-0.21c-0.07-0.07-0.14,0-0.14,0.07c0,0.07,0,0.21,0.07,0.21
	C114.14,136.33,114.14,136.26,114.21,136.26z M114.84,136.75c0.07,0.07,0.21,0.14,0.28,0.14c0.21-0.14,0.42-0.21,0.63-0.28
	c0.45-0.15,0.84-0.49,1.12-0.91c0,0-0.07-0.07-0.14-0.07c-0.21,0.14-0.42,0.28-0.63,0.49C115.75,136.47,115.19,136.4,114.84,136.75z
	 M115.61,135.91c0,0,0.07-0.07,0.07-0.14c0-0.16-0.07-0.21-0.14-0.28h-0.14c-0.07,0.07-0.14,0.21-0.14,0.28
	C115.33,135.91,115.47,135.98,115.61,135.91z M116.03,135.63c0.07,0,0.28,0.07,0.35-0.14c0.05-0.15,0-0.35-0.14-0.49h-0.21
	C115.82,135.14,115.82,135.49,116.03,135.63z M116.73,144.39c-0.35,0.28-0.14,0.91,0.21,1.19c0.21,0.14,0.43-0.06,0.63-0.14
	c0.35-0.14,0.49-0.42,0.21-0.7C117.43,144.46,117.01,144.11,116.73,144.39z M117.29,142.64c0,0.07,0.07,0.07,0.14,0.07
	c0-0.07,0.07-0.07,0.07-0.14c0-0.14-0.07-0.14-0.14-0.21C117.22,142.43,117.29,142.57,117.29,142.64z M119.54,148.1
	c-0.07,0.14-0.28,0.14-0.28,0.14c0.42,0.28,0.49,1.05,1.05,0.63C120.03,148.59,119.47,148.59,119.54,148.1z M119.96,146
	c0.16,0,0.14-0.21,0-0.28c-0.07,0,0,0.21-0.14,0.21C119.89,145.93,119.89,146,119.96,146z M119.82,149.78
	c-0.14,0.07-0.21,0.14-0.28,0.28c-0.07,0.28,0.21,0.35,0.42,0.35c0.35,0,0.77-0.07,0.91-0.49
	C120.52,149.99,120.17,149.71,119.82,149.78z M120.66,147.61c0.07,0,0.07-0.07,0.14-0.07c-0.07,0,0-0.14-0.07-0.14
	s-0.14,0-0.14,0.07C120.59,147.54,120.59,147.61,120.66,147.61z M120.59,145.65c-0.07-0.21-0.35-0.07-0.49,0
	c0.07,0.07,0.14,0.07,0.21,0.07S120.59,145.79,120.59,145.65z M119.82,145.93c0-0.1-0.14-0.14-0.21-0.21
	c-0.07,0.07-0.14,0.21-0.14,0.28c0.07,0.07,0.07,0.21,0.21,0.14C119.75,146.07,119.82,146,119.82,145.93z M119.74,145.23
	c0-0.14-0.07-0.35-0.14-0.28c-0.28,0.21-0.56,0.28-0.91,0.14c-0.07,0-0.14,0.07-0.07,0.14c0.21,0.14,0.14,0.49,0.35,0.35
	c0.21-0.07,0.35-0.07,0.56-0.21C119.62,145.31,119.74,145.37,119.74,145.23z M118.63,149.92v0.35c0.07,0,0.07,0.07,0.14,0.07h0.21
	c0.14-0.07,0.07-0.28,0.07-0.35C118.97,149.85,118.76,149.92,118.63,149.92z M118.76,149.01c0.07,0,0.07-0.07,0.14-0.07
	c0.1,0,0.07-0.07,0.14-0.14c-0.07-0.07-0.07-0.14-0.14-0.14s-0.21-0.07-0.28,0.07C118.56,148.87,118.69,148.94,118.76,149.01z
	 M118.06,146.28c-0.07,0-0.14,0-0.21-0.07c-0.07,0-0.14,0-0.21,0.07c-0.07,0.14,0.14,0.28,0,0.49c0,0.07,0.14,0.07,0.21,0.07
	c0.14,0,0.07-0.21,0.21-0.28c0,0.07,0,0.14-0.07,0.21c0.21,0.14,0.56-0.14,0.77-0.28C118.56,146.35,118.34,146.35,118.06,146.28z
	 M116.1,148.31c-0.07,0-0.14,0-0.14,0.07c0,0.07,0.14,0.07,0.21,0.07c0.21-0.14,0-0.42,0-0.63c0-0.21-0.35,0-0.49,0.14v0.21
	c-0.07,0-0.14,0-0.14,0.07c0,0.07,0,0.14,0.07,0.14c0.21,0.07,0.21-0.14,0.42-0.21C116.16,148.13,116.03,148.24,116.1,148.31z
	 M115.54,138.36c0.05-0.2-0.42-0.28-0.49-0.14c0,0.14-0.14,0.28-0.07,0.35c0.21,0.14,0.21,0.63,0.56,0.56
	c0.07,0,0.07-0.07,0.14-0.14C115.4,138.85,115.47,138.64,115.54,138.36z M115.68,141.51c0-0.07,0.07-0.07,0.07-0.14
	s0-0.14-0.07-0.14c-0.07,0-0.21,0-0.21,0.07C115.47,141.37,115.61,141.44,115.68,141.51z M115.47,141.86c-0.05-0.05-0.07,0-0.14,0
	c-0.07,0-0.07,0.07-0.07,0.14c0.07,0.07,0.07,0.07,0.14,0.14c0.07,0,0.14,0,0.14-0.07C115.54,142,115.54,141.93,115.47,141.86z
	 M115.82,140.81v-0.14c0-0.07-0.07-0.07-0.14-0.07c-0.07,0-0.07,0.07-0.07,0.14C115.68,140.81,115.75,140.81,115.82,140.81z
	 M115.89,140.11c-0.07-0.07-0.07-0.07-0.14-0.14c-0.07,0-0.14,0-0.14,0.07c-0.07,0.14,0.07,0.14,0.14,0.21
	C115.82,140.18,115.82,140.18,115.89,140.11z M114.91,140.39c-0.14,0.21-0.28,0.49-0.21,0.7c0.07,0.21,0.14-0.07,0.21-0.07v-0.14
	c0.07,0,0.14,0,0.14-0.07v-0.35C115.05,140.39,114.98,140.32,114.91,140.39z M115.12,137.66c-0.14-0.21-0.35,0-0.49,0.14
	c0,0.07,0,0.14,0.07,0.14c0.14,0,0.21,0,0.35-0.07C115.14,137.83,115.12,137.73,115.12,137.66z M114.63,143.12
	c0.14,0.21,0.14,0,0.21-0.07c-0.07-0.07-0.07-0.14-0.14-0.14C114.63,142.91,114.63,143.05,114.63,143.12z M114.84,142.5
	c0.07,0.07,0.14,0.14,0.21,0.21c0.07,0.07,0.14-0.07,0.14-0.14c0-0.22-0.14-0.28-0.28-0.21
	C114.84,142.36,114.77,142.43,114.84,142.5z M115.12,143.48c0,0.07,0.07,0.14,0.07,0.14c0.42-0.21,0.56-0.63,0.84-0.98
	c0.5-0.62,0.77-1.47,0.49-2.24c-0.21,0.56-0.07,1.19-0.49,1.68c-0.07,0.07-0.14,0.21-0.14,0.28
	C115.68,142.77,115.4,143.13,115.12,143.48z M116.24,139.06c0.14-0.14,0.07-0.35,0-0.49c-0.07-0.14-0.14-0.21-0.28-0.21
	c-0.07,0-0.07,0.07-0.07,0.14C116.03,138.71,116.1,138.85,116.24,139.06z M115.26,146.7c0.07,0.07,0.28,0,0.35-0.14
	c0-0.07,0.04-0.22,0-0.28c-0.21-0.28-0.14-0.63-0.42-0.84C115.26,145.86,114.98,146.35,115.26,146.7z M116.38,146.07
	c0.07-0.07,0.1-0.3,0-0.42c-0.28-0.35,0-0.84-0.42-1.05c-0.07,0-0.21,0.07-0.28,0.14c-0.21,0.49,0.21,0.77,0.28,1.19
	C116.03,146.07,116.24,146.14,116.38,146.07z M116.38,148.24c0,0.07,0,0.21,0.07,0.21c0.35,0,0.42-0.28,0.56-0.56
	c0.07-0.14,0.49-0.14,0.42-0.42c-0.14-0.28-0.49-0.14-0.7-0.35c0,0-0.14,0.07-0.07,0.14C117.01,147.61,116.52,147.89,116.38,148.24z
	 M117.43,146.84c-0.28-0.14-0.42,0-0.7-0.07c-0.14-0.07-0.14,0.35,0,0.28h0.42C117.36,147.05,117.36,146.91,117.43,146.84z
	 M116.94,137.45c0.14-0.14,0-0.28,0.07-0.42c0.06-0.12-0.07-0.14-0.14-0.21C116.59,137.03,116.8,137.24,116.94,137.45z
	 M117.01,134.5c-0.02-0.07-0.07-0.14-0.14-0.14c-0.14-0.07-0.28,0-0.35,0.14c0,0.21-0.07,0.42,0.14,0.49
	C116.94,135.07,117.08,134.71,117.01,134.5z M115.05,136.05c-0.14-0.14-0.28-0.21-0.42-0.14c-0.07,0.07,0.07,0.21,0.07,0.28h0.28
	C114.98,136.12,114.98,136.05,115.05,136.05z M114.63,148.45c0.07,0.21,0.14-0.07,0.21-0.07v-0.42c0-0.07-0.07-0.14-0.14-0.07
	C114.56,148.03,114.63,148.31,114.63,148.45z M114.56,155.11c0,0.07,0.14,0.07,0.21,0.07c0.14,0,0.28,0,0.35-0.14
	c0-0.07,0-0.14-0.07-0.21C114.84,154.76,114.49,154.76,114.56,155.11z M122.2,144.6c0-0.07-0.14-0.07-0.21-0.07
	c-0.07,0.07-0.21,0.14-0.28,0.14c-0.14-0.07-0.49-0.28-0.49-0.07c-0.07,0.35-0.35,0.63-0.21,0.91c0.14,0.28,0.56,0.07,0.91,0
	C122.42,145.41,122.06,144.95,122.2,144.6z M121.43,150.41c0,0.14,0.21,0,0.35,0c0.07,0,0.14-0.07,0.14-0.07v-0.21
	C121.71,150.06,121.29,150.13,121.43,150.41z M121.78,149.43c0,0,0.07-0.07,0.07-0.14c0-0.16-0.21-0.07-0.28-0.07
	c-0.07,0-0.07,0.07-0.07,0.14C121.57,149.5,121.71,149.43,121.78,149.43z M120.94,148.24c-0.07,0.14-0.14,0.49,0.07,0.42
	c0.21,0,0.14-0.28,0.28-0.42c0.22-0.22,0.28-0.49,0.56-0.63c0-0.07-0.07-0.07-0.14-0.07C121.36,147.75,121.15,147.96,120.94,148.24z
	 M122.69,146.07c0,0,0.07-0.07,0.07-0.14s0-0.21-0.07-0.21c-0.07,0-0.21-0.07-0.28,0.07v0.14
	C122.48,146,122.55,146.07,122.69,146.07z M125.54,139.62c-0.07-0.21,0.02-0.31,0.23-0.37c0.14,0,0.31,0.09,0.45,0.02
	c0-0.07,0.18-0.15,0.14-0.21c-0.49-0.7-1.47-0.84-2.17-0.35c-0.91,0.7-0.91,2.31,0.14,2.66c0.56,0.21,1.24-0.14,1.8-0.21
	c0.56-0.07,0.44-0.98,0.44-1.54c-0.14,0.07-0.21-0.21-0.35-0.14c-0.07,0.07-0.12,0.12-0.19,0.19
	C125.75,139.74,125.68,139.9,125.54,139.62z M127.24,146.21c-0.21-0.07-0.42,0.07-0.56,0.21c-0.07,0.21,0.28,0.42,0.21,0.7
	c0.14,0,0.35,0,0.42-0.14C127.45,146.7,127.52,146.35,127.24,146.21z M127.52,144.32c0-0.07,0.07-0.07,0.07-0.14
	s-0.07-0.07-0.14-0.07c-0.07,0-0.07,0.07-0.07,0.14C127.38,144.32,127.45,144.32,127.52,144.32z M127.17,143.69
	c-0.21-0.28-0.63-0.21-0.84-0.56c-0.07,0.07-0.21,0.14-0.21,0.21c0.14,0.28,0.28,0.35,0.35,0.63c0.02,0.1,0.21-0.07,0.35,0
	c-0.14,0-0.21,0.14-0.21,0.28c0.07,0.07,0.21,0.21,0.28,0.14C127.03,144.18,127.31,143.97,127.17,143.69z M125.56,143.9
	c-0.14,0.07-0.35-0.21-0.42,0c0,0.21-0.14,0.63,0.21,0.63c0.14,0,0.07-0.28,0.28-0.42C125.84,143.97,125.56,143.97,125.56,143.9z
	 M124.65,143.41c-0.07-0.07-0.07-0.14-0.14-0.14c-0.14-0.07-0.14,0.14-0.21,0.21c0.07,0.07,0.07,0.14,0.14,0.14
	C124.51,143.55,124.58,143.48,124.65,143.41z M124.58,145.16c-0.07,0.14,0,0.35,0.21,0.28c0.15-0.05,0.07-0.28-0.07-0.35
	C124.65,145.09,124.58,145.09,124.58,145.16z M124.51,147.54c0,0.14,0.28,0.14,0.42,0.21c0.07,0,0.07-0.14,0.07-0.21
	c0-0.07,0-0.14-0.07-0.14C124.72,147.4,124.44,147.33,124.51,147.54z M124.09,147.4c-0.1,0-0.23-0.01-0.35,0.02
	c-0.13-0.02-0.28-0.02-0.42-0.02c0.11,0,0.2,0.04,0.29,0.07c0.21,0.07,0.35,0.21,0.56,0.07C124.24,147.49,124.16,147.4,124.09,147.4
	z M123.46,144.88c-0.07-0.07-0.07-0.28-0.21-0.21c-0.14,0.07-0.07,0.21-0.07,0.28c0,0.07,0.14,0.07,0.21,0.07
	C123.39,145.02,123.46,144.95,123.46,144.88z M129.65,146.29c-0.03-0.01-0.07-0.01-0.1-0.01c-0.07,0.07-0.14,0.14-0.14,0.14
	c0.14,0.21,0.21,0,0.28-0.07c0.02-0.02,0-0.03-0.02-0.05c0.03,0.02,0.05,0.04,0.09,0.04c0.07-0.07,0.14-0.14,0.14-0.21
	c0-0.25-0.14,0.14-0.28,0.14C129.63,146.29,129.65,146.28,129.65,146.29z M129.49,145.09c0-0.07,0-0.14-0.07-0.21h-0.14
	c-0.14,0.14-0.21,0.35,0,0.42C129.35,145.23,129.49,145.23,129.49,145.09z M129.63,149.01c0-0.07-0.21,0-0.28,0.07
	c-0.14,0.7-0.28,1.47,0.07,2.17c0.07,0.07,0.26,0.04,0.35-0.14c0.07-0.14,0.42-0.21,0.28-0.35
	C129.49,150.27,129.84,149.57,129.63,149.01z M131.73,148.24c0.07,0,0.14-0.14,0.14-0.21v-0.14c-0.07-0.14-0.14-0.07-0.21,0
	C131.87,147.96,131.52,148.17,131.73,148.24z M132.64,137.94c-0.07,0-0.14,0.07-0.14,0.14c0.07,0.21,0.35,0.21,0.21,0.49
	c0,0.07,0.14,0.07,0.21,0.07c0.07,0,0.07-0.14,0.07-0.21C132.99,138.21,132.92,138.01,132.64,137.94z M132.92,135.77v-0.14
	l-0.07-0.07c-0.07,0-0.07,0.07-0.07,0.14C132.78,135.77,132.85,135.84,132.92,135.77z M132.64,145.3c0,0.07,0.15,0.13,0.21,0.21
	c0.42,0.56,0.77-0.28,0.77-0.63c-0.14,0,0-0.21-0.14-0.14C133.2,145.02,132.71,144.88,132.64,145.3z M133.2,136.05
	c0-0.07,0.07-0.07,0.07-0.14c0-0.07-0.07-0.07-0.14-0.07C132.92,135.98,133.2,135.98,133.2,136.05z M135.58,141.02
	c0-0.1-0.07-0.28-0.21-0.21c-0.21,0.14,0,0.42,0.14,0.49C135.58,141.3,135.58,141.09,135.58,141.02z M135.51,141.37
	c-0.16,0.16,0.07,0.42,0.21,0.42c0.21,0,0-0.21,0-0.35C135.72,141.37,135.58,141.3,135.51,141.37z M134.95,142.21
	c-0.07,0.14,0,0.42,0.21,0.35c0.15-0.05,0.28-0.21,0.21-0.35C135.3,142.07,135.02,142.07,134.95,142.21z M135.09,145.58
	c-0.07,0-0.21-0.14-0.28-0.07c-0.14,0.28-0.28,0.63-0.28,0.91c0,0.07,0.07,0.21,0.21,0.28c0.14,0.07,0.3-0.01,0.35-0.21
	C135.16,146.21,135.09,145.86,135.09,145.58z M135.09,138.43c0-0.22-0.35-0.56-0.42-0.28c-0.07,0.14,0.07,0.35,0.28,0.49
	C135.02,138.64,135.09,138.64,135.09,138.43z M134.88,141.44c-0.21-0.07-0.49,0-0.49,0.21c0.07,0.28,0.49,0.42,0.63,0.07
	C135.05,141.66,134.95,141.51,134.88,141.44z M134.32,141.02c0,0.14,0.21,0.21,0.42,0.14c0,0,0.07-0.07,0.07-0.14
	C134.81,140.73,134.25,140.74,134.32,141.02z M134.67,140.32c0.05-0.15-0.21-0.21-0.42-0.28c-0.07,0-0.14,0.14-0.14,0.14
	C134.18,140.39,134.6,140.53,134.67,140.32z M134.81,139.62c0-0.28-0.35-0.21-0.56-0.21c-0.07,0-0.07,0.07-0.07,0.14
	C134.32,139.76,134.81,139.97,134.81,139.62z M134.32,137.94c0-0.07-0.07-0.14-0.07-0.14c-0.28,0.28-0.63,0.7-0.42,1.12
	c0.21-0.14,0.21-0.35,0.28-0.56C134.18,138.16,134.25,138.08,134.32,137.94z M133.76,141.37c0.14,0.35,0.14,0.77,0.42,1.05
	c0.14-0.35-0.21-0.77-0.28-1.12C133.9,141.3,133.76,141.3,133.76,141.37z M133.69,146.21c0,0,0.14,0,0.21,0.07
	c0.14-0.14,0.18-0.29,0.28-0.49c0.14-0.28,0.49-0.63,0.21-0.77C134.04,144.81,133.48,145.72,133.69,146.21z M133.62,139.69
	c-0.14,0.14-0.14,0.28,0,0.28C133.76,139.97,133.69,139.83,133.62,139.69z M132.64,137.66c0-0.07,0-0.14-0.07-0.14h-0.14
	c-0.07,0-0.07,0.07-0.07,0.14c0,0.14,0.21,0,0.21,0.14C132.57,137.73,132.64,137.73,132.64,137.66z M135.02,154.27
	c0.07,0.14,0.28,0.21,0.42,0.14c0,0,0.07-0.07,0.07-0.14c0-0.22-0.28-0.21-0.42-0.21C135.02,154.06,135.02,154.2,135.02,154.27z
	 M135.58,143.05c0.07-0.07,0.21-0.14,0.14-0.28c-0.03-0.06-0.14,0-0.21,0c-0.07,0-0.07,0.07-0.07,0.14
	C135.51,142.98,135.51,142.98,135.58,143.05z M135.58,153.78c0.07,0.14,0.35,0.35,0.49,0.07c0.1-0.2-0.21-0.14-0.28-0.28
	C135.72,153.64,135.51,153.64,135.58,153.78z M136.28,148.38c-0.28-0.14-0.35,0.21-0.49,0.35c-0.07,0.14,0.07,0.21,0.14,0.28
	c0.07,0,0.07-0.07,0.14-0.07C136.3,148.94,136.49,148.52,136.28,148.38z M136.14,151.68c-0.14,0.14-0.3,0.37-0.24,0.58
	c0.07,0,0.21-0.04,0.27-0.06c0.21-0.07,0.27-0.3,0.27-0.44C136.39,151.76,136.35,151.62,136.14,151.68z M136.35,150.06
	c0-0.07-0.14-0.07-0.21-0.07c-0.28,0.07-0.28,0.28-0.21,0.49c0.07,0.07,0.21-0.05,0.28-0.07
	C136.42,150.34,136.35,150.2,136.35,150.06z M135.79,149.57c0.07,0.07,0.14,0.21,0.28,0.14c0.14-0.07,0.35-0.21,0.28-0.42
	c0-0.07-0.07-0.07-0.14-0.07C136.07,149.29,135.93,149.43,135.79,149.57z M135.79,151.25c0,0.07,0.07,0.07,0.14,0.14
	c0.07-0.07,0.21-0.14,0.28-0.21s0.07-0.21,0.07-0.28c0-0.07-0.14-0.07-0.21-0.07C135.93,150.9,135.79,151.04,135.79,151.25z
	 M136.14,153.22c0.07,0,0.21,0.07,0.26-0.02c0.14-0.21,0.14-0.41-0.12-0.54c-0.14,0-0.28,0-0.35,0.14
	C135.86,153.01,135.93,153.15,136.14,153.22z M136.64,147.54c0-0.21-0.28-0.28-0.42-0.21c-0.21,0.14-0.56,0.49-0.28,0.77
	c0.21,0.14,0.21-0.28,0.42-0.28C136.35,147.61,136.64,147.68,136.64,147.54z M135.93,146.14c0,0,0.13,0.08,0.19,0.05
	c0.14-0.07,0.36-0.3,0.28-0.44c-0.07,0-0.26-0.03-0.33-0.03C135.93,145.79,135.86,146,135.93,146.14z M136.14,145.3
	c0.07-0.07,0.09-0.02,0.14-0.07c0.07-0.07,0.07-0.14,0.14-0.21c0-0.07-0.07-0.07-0.14-0.07c-0.07,0.07-0.21,0.14-0.28,0.28
	C136.01,145.3,136.08,145.3,136.14,145.3z M135.86,146.84c0,0.07,0.07,0.28,0.28,0.21l0.07-0.14c0.14-0.07,0.21-0.14,0.21-0.28
	c0-0.07-0.07-0.14-0.14-0.14C136.01,146.42,135.86,146.63,135.86,146.84z M136.42,144.11c0-0.21-0.14-0.28-0.28-0.21
	c-0.07,0.07-0.21,0.14-0.21,0.21c0,0.14-0.07,0.42,0.07,0.42C136.21,144.6,136.42,144.46,136.42,144.11z M136.07,143.27
	c0-0.07-0.07-0.07-0.14-0.07c-0.07,0.07-0.21,0.14-0.21,0.21c0,0.14,0.14,0.07,0.21,0C136,143.34,136.07,143.34,136.07,143.27z
	 M135.86,138.15c0-0.14-0.14,0.07-0.21,0.14c-0.14,0.28-0.35,0.49-0.21,0.84h0.14C135.72,138.78,135.93,138.5,135.86,138.15z
	 M135.93,136.68c0.14,0.07,0.42,0,0.42-0.21c0-0.16-0.21-0.21-0.35-0.14C135.86,136.4,135.79,136.61,135.93,136.68z M135.86,136.19
	c0-0.14-0.07-0.42-0.28-0.35c-0.21,0.14-0.49,0.28-0.35,0.56c0.07,0.21,0.35,0,0.56,0C135.86,136.4,135.86,136.26,135.86,136.19z
	 M135.02,137.73c0,0.07,0.07,0.35,0.28,0.28l0.07-0.14c0.07,0,0.14-0.07,0.14-0.07C135.37,137.59,135.02,137.38,135.02,137.73z
	 M134.95,135.7c-0.28-0.07-0.56,0.42-0.28,0.56c0.07,0,0.14,0.07,0.21-0.14C134.93,135.99,135.16,135.77,134.95,135.7z
	 M134.53,138.64c-0.07-0.07-0.14,0-0.14,0.07c-0.07,0.28,0.14,0.35,0.35,0.49c0.07,0,0.14,0,0.14-0.07v-0.21
	C134.88,138.76,134.67,138.78,134.53,138.64z M134.53,135.42c-0.14-0.14-0.35-0.07-0.49-0.07c-0.21,0.07-0.35,0.21-0.28,0.42
	c0.21,0.28,0.49,0.07,0.7-0.07C134.59,135.61,134.53,135.49,134.53,135.42z M133.76,134.93c0-0.36-0.42-0.28-0.63-0.14
	c-0.21,0.07-0.21,0.49,0.07,0.63c0.21,0.07,0.42-0.07,0.56-0.28V134.93z M133.06,134.15c-0.14-0.07-0.35,0-0.49,0.07
	c-0.07,0.07-0.14,0.21-0.14,0.28c0.07,0.14,0.28,0.35,0.49,0.14C133.06,134.5,133.27,134.29,133.06,134.15z M132.57,133.45
	c-0.21-0.07-0.42,0-0.49,0.14c-0.14,0.35,0.21,0.49,0.49,0.28C132.77,133.72,132.78,133.52,132.57,133.45z M132.29,132.89
	c-0.07-0.14-0.21-0.07-0.28-0.07c-0.07,0.07-0.28,0.21-0.07,0.35c0.07,0,0.08,0.03,0.14,0C132.22,133.1,132.36,133.03,132.29,132.89
	z M131.8,134.16c-0.13-0.15-0.07-0.35-0.21-0.42c-0.14,0.7,0.56,1.33,1.05,1.82c0.07,0.07,0.14-0.07,0.14-0.07
	C132.5,135,132.15,134.58,131.8,134.16z M131.8,137.31c-0.07,0-0.07,0.07-0.07,0.14c0.14,0.21,0.28,0.21,0.49,0.07l0.07-0.07
	C132.15,137.31,132.01,137.31,131.8,137.31z M131.38,136.19c-0.13-0.04-0.42,0-0.35,0.21c0,0.21,0.35,0,0.42,0.07
	c0.14,0.14-0.07,0.56,0.28,0.42C131.94,136.68,131.59,136.26,131.38,136.19z M118.13,134.37c0-0.07,0-0.28-0.07-0.21
	c-0.42,0.28-0.77,0.77-0.98,1.26c-0.07,0.14,0.28,0,0.35-0.14C117.61,134.91,117.92,134.71,118.13,134.37z M118.06,132.61
	c-0.07-0.07-0.21-0.07-0.21,0C117.85,132.75,117.99,132.68,118.06,132.61z M117.71,133.1c-0.07,0-0.14,0-0.14,0.07
	c-0.07,0.14,0.07,0.21,0.14,0.28c0.14,0.07,0.21-0.07,0.21-0.14C117.92,133.24,117.78,133.17,117.71,133.1z M117.57,133.81
	c-0.14-0.21-0.35-0.07-0.42,0.07c0,0.21,0,0.35,0.21,0.42c0.14,0.07,0.14-0.07,0.21-0.14C117.68,134.04,117.64,133.95,117.57,133.81
	z M113.65,136.68c-0.07,0-0.14,0-0.14,0.07c0,0.07,0,0.21,0.07,0.21c0.07,0,0.14,0.07,0.21-0.14
	C113.81,136.75,113.72,136.75,113.65,136.68z M136.78,147.4c0,0.49-0.07,1.05,0.07,1.54c0.14-0.07,0-0.21,0.14-0.28
	c-0.14-0.35,0.07-0.63,0.07-0.98c-0.07-0.07,0-0.21-0.14-0.28C136.85,147.37,136.85,147.4,136.78,147.4z M136.92,146.63
	c0.21-0.28,0.07-0.63,0.07-0.91c-0.07-0.21-0.14,0.07-0.21,0.07v0.77L136.92,146.63z M136.78,149.64c0,0.07,0.07,0.07,0.14,0.07
	c0.21-0.14,0-0.21-0.07-0.28C136.79,149.38,136.78,149.57,136.78,149.64z M136.85,149.36c0.14-0.07,0.07-0.14,0-0.21
	c0,0.07-0.07,0.07-0.07,0.14L136.85,149.36z M137.41,148.94c0.07-0.42-0.07-0.84-0.07-1.26c0,0-0.14,0-0.14,0.07
	c0.07,0.98,0.07,1.89,0.07,2.87C137.34,150.06,137.31,149.51,137.41,148.94z M137.48,145.58c0.11-0.11-0.07-0.28-0.14-0.28
	c-0.21,0.14-0.21,0.56,0,0.63C137.48,146,137.34,145.72,137.48,145.58z M137.41,157.42c0.14,0.21,0.14-0.14,0.28-0.07
	c-0.07-0.07-0.14-0.07-0.21-0.07C137.41,157.28,137.41,157.35,137.41,157.42z M137.76,137.17c0-0.07-0.21-0.21-0.28-0.14
	c-0.14,0.14-0.14,0.42-0.28,0.56c-0.56,0.42-1.05,0.91-1.19,1.54c-0.28,0.84-0.14,1.75,0.21,2.52c0.28,0.56,0.91,0.91,1.12,1.54
	c0.28-0.91,0.07-1.89,0.07-2.8c0-0.42,0.35-0.7,0.07-1.05c0,0,0.07-0.07,0.14-0.07C137.55,138.57,137.76,137.87,137.76,137.17z
	 M137.13,135.22c0,0-0.24,0.16-0.26,0.28c-0.02,0.12,0.03,0.37,0.1,0.58c0.07,0.21,0.1,0.4,0.28,0.24c0.17-0.16,0.24-0.31,0.19-0.58
	C137.39,135.49,137.81,135.12,137.13,135.22z M131.87,130.02c0.14-0.07,0.35-0.14,0.49-0.07c0.21,0.14,0.09,0.52,0.16,0.58
	c0.21,0.28,0.54,0.4,0.82,0.61c1.1,0.76,1.54,1.96,2.45,2.94c0.21,0.21,0.42,0.49,0.7,0.63c0.28,0.07,0.49,0.14,0.7-0.07
	c0.21-0.35,0.07-0.91-0.21-1.05c-0.42-0.14-0.77-0.35-0.98-0.77c-0.14-0.28-0.48-0.44-0.84-0.7c-0.49-0.35-0.86-0.75-1.29-1.24
	c-0.07-0.21-0.33-0.37-0.47-0.51c-0.35-0.21-0.4-0.35-0.68-0.63C132.38,129.46,132.01,129.67,131.87,130.02z M131.73,131.14
	c0,0.35,0.56,0.07,0.77,0.28c0.42,0.35,0.42,1.05,0.84,1.61c0.49,0.63,0.91,1.33,1.68,1.75c0.42,0.14,0.7,0.56,1.19,0.49
	c0-0.07-0.07-0.21-0.07-0.28c-0.56-0.49-1.06-0.83-1.47-1.47c-0.63-0.98-1.19-1.96-2.17-2.45
	C132.29,130.93,131.73,130.86,131.73,131.14z M131.31,132.47c0,0.07,0,0.14,0.07,0.14c0.21,0.07,0.28-0.14,0.35-0.21v-0.14
	c0-0.07-0.07-0.07-0.14-0.07C131.45,132.26,131.38,132.33,131.31,132.47z M131.29,116.57l0.05,0.4c0,0,0.49-0.28,0.61-0.51
	c0.12-0.24,0.05-0.35-0.07-0.26C131.75,116.29,131.29,116.57,131.29,116.57z M131.24,133.24c0.07,0.21,0.14,0.42,0.28,0.56
	c0.14-0.14,0.07-0.35,0-0.49c-0.04-0.09-0.07-0.07-0.14-0.14C131.31,133.17,131.24,133.17,131.24,133.24z M131.1,132.26
	c0-0.38-0.49-0.07-0.63,0.14c-0.07,0.14,0.07,0.28,0.14,0.28C130.82,132.68,131.1,132.54,131.1,132.26z M126.73,117.62
	c0.16,0.05,0.47,0,0.72-0.19s0.65-0.65,0.93-1.07c0.28-0.42,0.47-0.65,1.12-0.77c0.65-0.12,0.68-0.3,1-0.37
	c0.33-0.07,0.58-0.21,0.58-0.21s-0.89,0.03-1.12,0.07c-0.23,0.05-1.31,0.14-1.61,0.26c-0.31,0.12-0.47,0.4-0.68,0.82
	c-0.21,0.42-0.42,0.96-0.56,1.05c-0.14,0.09-0.19,0.12-0.44,0.19C126.59,117.41,126.57,117.57,126.73,117.62z M129.04,119.32
	c-0.05,0.14-1,0.75-1.19,0.77c0,0-0.07,0.16,0.05,0.19c0.12,0.02,0.54-0.12,0.82-0.28c0.28-0.16,1.05-0.68,1.36-1.07
	c0.3-0.4,0.56-0.96,0.56-1.07s0-0.26-0.16-0.1c-0.16,0.17-0.37,0.63-0.56,0.79c-0.19,0.16-0.54,0.31-0.68,0.4
	C129.09,119.04,129.09,119.18,129.04,119.32z M129.7,116.82c0.12-0.09,0.21-0.35,0.12-0.33c-0.09,0.02-0.51-0.02-0.61,0.12
	C129.09,116.79,129.58,116.91,129.7,116.82z M124.96,119.9c-0.02,0.21-0.02,0.58,0.16,0.75c0.19,0.16,0.35,0.21,0.44,0.02
	c0.09-0.19,0.35-0.26,0.45-0.23c0.09,0.02,0.23-0.35,0.12-0.49c-0.12-0.14-0.45-0.4-0.84-0.28
	C125.28,119.67,124.98,119.7,124.96,119.9z M125.54,121.84c-0.09-0.14-0.4-0.33-0.49-0.19c-0.09,0.14-0.28,0.33-0.28,0.68l1.17-0.02
	C125.94,122.31,125.63,121.98,125.54,121.84z M121.92,120c-0.12-0.07-0.42-0.16-0.42-0.16s-0.23-0.05-0.21,0.07s0.26,0.28,0.42,0.28
	C121.87,120.18,122.04,120.07,121.92,120z M123.93,120.42c0.07-0.33,0.28-0.3,0.35-0.4c0.07-0.09-0.3-0.26-0.42-0.28
	c-0.12-0.02-0.14-0.23-0.09-0.42c0.05-0.19,0.17-0.51,0.14-0.65c-0.02-0.14-0.17-0.28-0.12-0.52c0.05-0.23,0.24-0.14,0.35-0.02
	c0.12,0.12,0.19,0.12,0.33-0.05c0.14-0.16,0.24-0.21,0.38-0.33c0.14-0.12,0.12-0.86,0.07-1.07c-0.05-0.21-0.26-0.47-0.21-0.72
	c0.04-0.26-0.17-0.7-0.24-0.86c-0.07-0.16-0.33-0.19-0.51-0.16c-0.19,0.02-0.55,0.25-0.42,0.28c0.23,0.05,0.31,1.47,0.19,1.87
	c-0.12,0.4-0.7,0.7-1.17,0.86c-0.47,0.16-1.1-0.07-1.38-0.12c-0.28-0.05,0.47,0.42,0.93,0.51c0.47,0.09,0.75-0.07,0.89-0.12
	c0.14-0.05,0.26,0.09,0.35,0.23c0.09,0.14,0.07,0.7,0.05,0.98c-0.02,0.28,0,0.72,0.02,1.03c0.02,0.31,0.33,1.07,0.47,1.1
	c0.14,0.02,0.05-0.24,0.07-0.38C123.97,121.05,123.86,120.75,123.93,120.42z M122.38,126.31c0.19,0.33,0.28,0.54,0.56,0.82
	c0.28,0.28,0.47,0.23,0.54,0.37c0.07,0.14,0.09,0.68,0.19,0.79c0.1,0.13,0.02,0.51,0.3,0.7c0.28,0.19,0.7,0.26,0.82,0.16
	c0.12-0.09,0.09-0.35,0.21-0.35s0.26,0.02,0.33-0.05c0.07-0.07,0.21-0.49,0.19-0.61c-0.02-0.11,0.09-0.68,0.47-0.56
	c0.38,0.12,0.54,0.16,0.89,0.45c0.35,0.28,0.7,0.58,0.58,0.72c-0.12,0.14-0.05,0.28,0.16,0.38c0.21,0.09,0.65,0.23,0.82-0.05
	c0.16-0.28,0.16-0.54-0.14-0.58c-0.31-0.05-0.72-0.14-0.75-0.35c-0.02-0.21-0.05-0.63-0.09-0.75c-0.05-0.12-0.14,0.02-0.21,0.12
	c-0.07,0.09-0.35,0.21-0.42,0.16c-0.07-0.05-0.07-0.26-0.26-0.3c-0.19-0.05-0.49-0.02-0.63,0c-0.14,0.02-0.4,0.3-0.54,0.19
	c-0.14-0.12-0.49-0.75-0.23-1.05c0.26-0.31,0.56-0.26,0.63-0.38c0.07-0.12-0.05-0.63-0.3-0.7c-0.26-0.07-0.41-0.26-0.28-0.68
	c0.09-0.31,0.4-0.49,0.47-0.28c0.07,0.21,0.26,0.72,0.4,0.75c0.14,0.02,0-0.44-0.07-0.7c-0.07-0.26-0.14-0.93-0.12-1.12
	c0.02-0.19-0.05-0.61-0.3-0.65c-0.26-0.05-0.54-0.12-0.7,0.09c-0.16,0.21-0.28,0.54-0.28,0.82c0,0.28-0.02,0.4-0.21,0.42
	c-0.19,0.02-0.45,0.05-0.63,0.16c-0.19,0.12-0.3,0.33-0.3,0.49c0,0.16-0.09,0.42-0.21,0.49c-0.12,0.07-0.23,0.54-0.35,0.65
	c-0.1,0.1-0.35-0.09-0.52-0.05C122.22,125.89,122.2,125.98,122.38,126.31z M128.58,129.93c0.14,0.14,0.49,0.47,0.75,0.35
	c0.26-0.12,0.44-0.56,0.07-0.7c-0.37-0.14-0.47-0.14-0.75-0.05C128.47,129.59,128.44,129.79,128.58,129.93z M127.01,129.48
	c-0.37-0.02-0.47,0.14-0.35,0.28c0.12,0.14,0.68,0.54,0.93,0.52C127.85,130.25,128.11,129.55,127.01,129.48z M126.22,129.83
	c-0.16-0.14-0.56-0.28-0.75-0.31c-0.28-0.03-0.49,0.26-0.37,0.37c0.12,0.12,0.4,0.35,0.7,0.35
	C126.1,130.25,126.38,129.97,126.22,129.83z M124.18,129.72c-0.35-0.14-0.63-0.21-0.63-0.21c-0.12,0.02-0.38,0.16-0.23,0.35
	c0.14,0.19,0.54,0.38,0.89,0.33C124.56,130.14,124.53,129.86,124.18,129.72z M121.8,129.51c-0.25,0.06-0.42,0.12-0.33,0.28
	c0.09,0.16,0.51,0.45,0.82,0.45c0.3,0,0.65-0.21,0.42-0.42C122.48,129.6,122.2,129.41,121.8,129.51z M121.19,127.94
	c0.21,0.61,0.4,1.1,0.58,0.96c0.19-0.14,0.14-0.44,0.05-0.63c-0.09-0.19-0.09-0.68-0.02-0.84c0.07-0.16,0.14-0.79,0.07-0.96
	c-0.07-0.16-0.19-0.47-0.19-0.63c0-0.16,0.05-0.37-0.28-0.33c-0.17,0.02-0.28,0.4-0.33,0.86
	C121.03,126.84,120.98,127.33,121.19,127.94z M119.79,129.62c-0.05,0.12,0.02,0.45,0.26,0.54c0.23,0.09,0.56,0.21,0.77,0.05
	c0.21-0.16,0.05-0.72-0.58-0.72C120.24,129.48,119.84,129.51,119.79,129.62z M118.46,131.14c0,0.14,0.28,0.23,0.65,0.23
	c0.37,0,8.06,0.04,8.78,0.02c0.72-0.02,1.75-0.02,2.26,0c0.52,0.02,0.93,0.02,0.84-0.16c-0.1-0.19-0.21-0.24-0.26-0.4
	c-0.05-0.16-0.09-0.47-0.12-0.7c-0.02-0.23,0.07-0.49-0.12-0.61c-0.19-0.11-0.35-0.02-0.42-0.14c-0.07-0.12-0.1-0.47,0.07-0.49
	c0.17-0.02,0.61,0,0.72-0.02c0.12-0.02,0.19-0.16,0.19-0.16l-0.05-9.86c0,0-0.26,0-0.37,0.19s-0.47,0.63-0.72,0.79
	c-0.26,0.16-0.93,0.79-1.19,0.77c-0.26-0.02-0.3,0.12-0.42,0.19c-0.12,0.07-0.47,0.12-0.63,0.14c-0.16,0.02-0.49,0.07-0.56,0
	c-0.07-0.07-0.23-0.4-0.42-0.28c-0.19,0.11,0,0.42,0.02,0.61c0.02,0.19-0.05,0.52-0.07,0.75c-0.02,0.23-0.14,0.42-0.07,0.51
	c0.07,0.09,1.52,0.61,2.08,1.57c0.56,0.96,0.84,1.82,0.84,2.62c0,0.79-0.35,1.92-0.42,2.06c-0.07,0.14,0.05,0.3,0.14,0.35
	c0.1,0.05,0.68,0.31,0.75,0.49c0.07,0.19,0.1,0.77-0.16,0.93c-0.26,0.16-0.51,0.19-0.7,0.16c-0.19-0.02-0.31-0.14-0.54-0.14
	c-0.23,0-0.38,0.02-0.61,0.07c-0.23,0.05-0.4,0.12-0.72,0.02c-0.33-0.09-0.28-0.21-0.61-0.12c-0.33,0.09-0.63,0.16-0.89,0.09
	c-0.26-0.07-0.58-0.21-0.89-0.12c-0.3,0.09-0.61,0.19-0.84,0.14c-0.23-0.05-0.28-0.19-0.7-0.09c-0.42,0.09-0.89,0.21-1.26,0.14
	c-0.37-0.07-0.4-0.33-0.79-0.16c-0.4,0.16-0.77,0.26-0.91,0.19c-0.13-0.06-0.16,0.14-0.3,0.23s-0.68,0.14-0.93,0.12
	C118.86,131.05,118.46,131,118.46,131.14z M111.9,133.6c0.07,0.7,0.96,1.24,1.73,1.1c0.56-0.14,0.96-0.48,1.47-0.79
	c0.56-0.35,0.84-1,1.26-1.5c0.42-0.42,0.61-0.98,1.38-1.05c0.14,0,0.23-0.26,0.37-0.4c0.07,0,0.03-0.24,0.17-0.17
	c-0.07-0.14,0.42-0.07,0.28-0.14c-0.35-0.07-0.91-0.14-1.19,0.07c-0.84,0.56-1.47,1.19-2.31,1.75c-0.56,0.42-1.05,0.84-1.68,0.98
	c-0.35,0.14-0.63-0.28-0.84-0.56C112.11,132.61,111.83,133.31,111.9,133.6z M108.67,131.63c-0.14,0.28,0.14,0.7,0.28,0.98
	c0.14,0.14,0.35,0.28,0.49,0.35c0.14,0.14,0.42,0.28,0.63,0.21c0.35-0.07,0.21-0.56,0.49-0.7c0.14-0.07,0.35,0,0.42,0.14
	c0,0.28-0.07,0.63-0.28,0.77c-0.21,0.07-0.35,0.21-0.56,0.28c-0.35,0.14-0.84-0.21-0.84,0c-0.07,0.84-0.28,1.89,0.07,2.59
	c0.21,0.28,0.7-0.07,0.77-0.49c0.14-0.7,0.07-1.47,0.49-2.1c0,0,0.21-0.21,0.35,0c0.14-0.42,0.06-0.9,0.42-1.26
	c0.14-0.14,0.28-0.21,0.42-0.35c0.14-0.28-0.14-0.49-0.21-0.7c-0.35-0.42-0.49-0.91-0.91-1.26c-0.14-0.21-0.49-0.28-0.7-0.14
	c-0.28,0.14-0.21,0.56-0.35,0.84C109.44,131.21,108.81,131.28,108.67,131.63z M108.93,130.95c0.07-0.09,0.12-0.19-0.02-0.23
	l-0.26,0.19C108.65,130.91,108.86,131.05,108.93,130.95z M107.25,124.41c-0.07,0.09,0.12,0.16,0.3,0.16s0.47-0.05,0.54-0.16
	c0.07-0.12-0.16-0.19-0.42-0.23C107.41,124.13,107.25,124.41,107.25,124.41z M106.62,126.59c0,0.56,0.42,1.12,0.42,1.68
	c-0.07,0.42-0.28,0.84-0.28,1.26c0,0.07,0.14,0.07,0.14,0.14c0,0.35,0.21,0.7,0.49,0.7c0.56,0,1.27,0.35,1.54-0.28
	c0.21-0.49-0.07-0.98-0.14-1.47c-0.07-0.14-0.21-0.07-0.28-0.07c-0.28,0.14-0.49,0.28-0.77,0.21c-0.07,0-0.07-0.07-0.07-0.14
	c-0.14,0-0.28,0-0.35-0.14c-0.07-0.14,0-0.35,0.14-0.35c0.49,0.07,0.84,0.14,1.05-0.21c0.35-0.49,0.7-1.12,0.21-1.68
	c-0.14-0.07-0.35,0-0.42,0.07c-0.21,0.28,0.21,0.7-0.14,0.98c0.28,0,0.42,0.28,0.35,0.49c-0.14,0.21-0.42,0.21-0.63,0.14
	c-0.21-0.14-0.14-0.49,0.07-0.63c-0.07,0-0.14,0-0.14-0.07c-0.07-0.63-0.07-1.33,0.63-1.54c-0.21-0.21-0.42-0.56-0.77-0.42
	c-0.07,0.07-0.07,0.14-0.07,0.21C107.04,125.67,106.69,126.03,106.62,126.59z M107.93,130.88c0,0-0.23,0.12-0.19,0.24
	c0.05,0.11,0.09,0.28,0.23,0.16C108.11,131.17,108.14,130.86,107.93,130.88z M106.64,130.53c-0.07,0.02,0.02,0.23,0.09,0.35
	c0.07,0.12,0.38,0.19,0.38,0.12C107.11,130.93,106.73,130.51,106.64,130.53z M103,132.26c0.35,0.21,0.7,0.28,0.91,0.63
	c0.14,0.49,0.21,0.98,0.21,1.47c0.42-0.35,0.07-0.98,0.42-1.4h0.21c0.42,0.49,0.14,1.4,0.77,1.47c0.14,0,0.63-0.28,0.7,0
	c0.14,0.49-0.42,0.77-0.84,0.91v0.14c0,0.07-0.07,0.07-0.14,0.07c0.21,0.07,0.14,0.42,0.35,0.42c0.56,0,1.05-0.42,1.54-0.21
	c0.35,0.14,0.77,0.07,1.05,0.42c0.14,0.07,0.35,0.14,0.49,0.07c0.42-0.63,0.21-1.33,0-1.96c-0.07-0.28-0.35-0.56-0.49-0.91
	c0-0.07-0.07-0.35-0.21-0.28c-0.14,0.07,0,0.35,0,0.49v1.33c0.07,0.07,0,0.35-0.14,0.28c-0.56-0.28-0.28-0.98-0.35-1.54
	c-0.21,0.56-0.07,1.26-0.42,1.82c-0.7-0.14,0-1.12-0.35-1.54c-0.07-0.14-0.42-0.07-0.7-0.07c-0.28,0.07-0.56-0.21-0.7-0.42
	c-0.35-0.28-0.63-0.63-0.84-0.98c-0.07-0.21-0.07-0.49,0-0.7c0.07-0.07,0.14-0.21,0.28-0.14c0.14,0.07,0.21,0.21,0.21,0.42
	c0.07,0.14,0.21,0.14,0.35,0.21c0.35,0.35,0.35,1.4,1.05,0.91c0.28-0.21,0.56-0.49,0.7-0.84c0.14-0.21,0.21-0.49,0.21-0.7
	c-0.07-0.21-0.28-0.14-0.49-0.14c0,0.14-0.07,0.21-0.14,0.21c-0.42,0.07-0.7,0.14-1.05,0.42c-0.07,0-0.28-0.07-0.28-0.14
	c0-0.14-0.21-0.14-0.14-0.28c0-0.07,0.07-0.07,0.14-0.07v-0.35c0.14-0.28,0.35-0.56,0.63-0.7c-0.21-0.28-0.28-0.63-0.49-0.91
	c-0.07-0.14-0.35-0.14-0.49,0c-0.28,0.28-0.7,0.21-0.91,0.56c-0.07,0.14-0.14,0.21-0.21,0.35
	C103.56,131.14,103.35,131.77,103,132.26z M102.19,152.52c0,0-0.07,0.28,0.07,0.35C102.4,152.94,102.47,152.69,102.19,152.52z
	 M102.67,135.56c0.21-0.04,0.47-0.16,0.65-0.63c0.19-0.47,0.09-1.21-0.26-1.45c-0.14-0.09-0.21-0.05-0.24,0.14
	c-0.02,0.19-0.04,0.28-0.19,0.33c-0.14,0.05-0.23,0.28-0.21,0.44c0.02,0.16,0.16,0.63,0.14,0.89
	C102.55,135.54,102.46,135.6,102.67,135.56z M102.86,147.01c0,0-0.24,0.18-0.14,0.31C102.82,147.47,103.28,147.22,102.86,147.01z
	 M103.07,143.48l-0.03-1.47c0,0-0.35-0.21-0.31,0.1C102.75,142.43,103.07,143.48,103.07,143.48z M103.17,145.33
	c0,0,0.14-0.67,0-0.84c0,0-0.1,0.35-0.1,0.56C103.07,145.26,103.17,145.33,103.17,145.33z M99.4,161.63
	c0.2-0.16-0.21-0.77-0.37-1.03c-0.16-0.26-1.01-1.44-1.23-1.58c0,0-0.31-0.11-0.36,0.04c-0.04,0.16,0.03,0.27,0.23,0.48
	c0.2,0.21,0.64,1.01,0.76,1.3c0.11,0.29,0.31,0.74,0.43,0.91C98.97,161.93,99.2,161.79,99.4,161.63z M99.73,162.34
	c0,0-0.34,0.01-0.33,0.17c0.01,0.16,0.17,0.31,0.77,0.46c0.6,0.14,0.9,0.08,1.09-0.06C101.44,162.77,101.4,162.43,99.73,162.34z
	 M109.09,161.21c0.3-0.35,0.35-1.03,0.65-1.26c0.31-0.24,0.47-0.56,1-0.56c0.54,0,1.03,0.16,1.26,0.21c0.23,0.05,0.47-0.54-0.14-1.1
	c-0.61-0.56-2.06-0.28-2.64-0.28c-0.58,0-2.83-0.28-3.08-0.21c-0.26,0.07-0.03,0.19-0.38,0.21c-0.35,0.02-0.91-0.09-1-0.21
	c-0.09-0.12-0.16-0.47-0.23-0.44c-0.07,0.02-0.09,0.42-0.23,0.42c-0.14,0-3.06,0.14-3.46,0.16c0,0-0.65-0.05-0.89,0.07
	c-0.23,0.12-0.49,0.33-0.52,0.7c-0.02,0.37,0.12,0.89,0.35,1.52c0.23,0.63,0.21,1.03,0.42,1c0.21-0.02,1.45-0.28,2.22-0.33
	c0.77-0.05,1.73-0.05,2.59,0.02c0.86,0.07,2.27,0.17,2.9,0.24C108.56,161.44,108.79,161.56,109.09,161.21z M140.35,162.23
	c-0.35-0.77-0.91-1.61-1.47-2.31c-0.56,0.35-1.05,0.7-1.68,1.05c-0.14,0.07-0.35,0.21-0.49,0.21c-1.61,0.56-3.08,1.05-4.77,1.4
	c-0.77,0.21-1.54,0.21-2.24,0.49c-0.21,0.14-0.49,0.14-0.7,0.14c-1.89,0.14-3.78,0.42-5.67,0.28c-1.4-0.07-2.81-0.07-4.28-0.42
	c-1.54-0.42-2.97-0.67-4.49-1.05c-1.12-0.28-2.17-0.49-3.22-1.05c-0.42-0.21-0.77-0.42-1.19-0.56c-0.07-0.07-0.21,0.14-0.28,0.28
	c0,0.28-0.14,0.49-0.21,0.7c-0.35,0.42-0.49,0.91-0.84,1.33c-0.07,0.07,0,0.28,0,0.35c0.14,0.28,0.49,0.35,0.7,0.49
	c1.4,0.7,2.8,1.33,4.27,1.75c1.4,0.42,2.66,0.7,4.14,0.91c0.28,0.07,0.63,0.14,0.91,0.14c1.68,0.28,3.29,0.42,4.91,0.42
	c1.12,0.07,2.17,0,3.29-0.07c1.47-0.07,2.87-0.42,4.35-0.77c1.26-0.21,2.38-0.56,3.57-0.98c0.49-0.21,1.05-0.28,1.61-0.49
	c0.84-0.21,1.68-0.63,2.52-1.05C139.58,163.22,140.56,162.86,140.35,162.23z M133.06,161.7c0.21,0.21,0.82,0,0.77-0.42
	c-0.07-0.56-0.56-0.98-1.12-0.98C132.64,160.79,132.71,161.42,133.06,161.7z M135.79,160.71c0.56,0.07,1.1-0.12,1.54-0.42
	c0.21-0.14,0.56-0.21,0.42-0.49c-0.14-0.21-0.49-0.28-0.7-0.21c-0.42,0.14-0.91,0.14-1.33,0.42
	C135.37,160.23,135.51,160.71,135.79,160.71z M147.78,162.61h-0.21l0.07,0.07C147.71,162.68,147.71,162.61,147.78,162.61z
	 M149.95,161.84c-0.49-0.35-1.12-0.14-1.68,0c-0.14,0.07,0.14,0.07,0.07,0.21c0.28,0.07,0.6-0.02,0.91,0.14
	c0.14,0.07,0.35,0.07,0.49,0.07C149.95,162.19,150.02,161.98,149.95,161.84z M145.47,157.63c-0.21,0.07-0.35,0.42-0.63,0.49
	c-0.49,0.07-0.91-0.21-1.33-0.35c-1.33-0.49-2.8,0-4.21-0.14c-0.28,0-0.28,0.49-0.56,0.63c-0.42,0.21-0.7,0.42-1.19,0.35
	c-0.42-0.14-0.49-0.56-0.77-0.84c-0.14-0.21-0.63-0.14-0.77,0c-0.35,0.21-0.7,0-0.98,0.07c-1.05,0.21-2.73,0-2.94,1.26
	c-0.07,0.28,0.28,0.42,0.49,0.56c0.21,0.07,0.42,0.07,0.56,0.14c0.49,0.28,1.12,0.28,1.61,0c1.19-0.49,2.38-0.7,3.64-0.77
	c0.35-0.07,0.7-0.07,0.98,0.28c0.21,0.35,0.21,1.05,0.63,1.05c1.54,0.14,3.15,0.07,4.7,0c1.68-0.07,3.29-0.07,5.05,0.35
	c0.21,0,0.42,0.14,0.63,0.35c0.07,0.07,0.21-0.07,0.28-0.07c-0.07-0.14,0.07-0.21,0.07-0.35c0.28-0.56,0.7-0.91,1.05-1.4
	c0.28-0.42-0.21-0.77-0.49-0.84c-0.35-0.14-0.63,0.35-0.91,0.63c0.28,0,0.21-0.35,0.42-0.42c0.21-0.07,0.42,0,0.56,0.07
	c0.14,0.07,0.21,0.35,0.14,0.49c-0.14,0.21-0.35,0.42-0.56,0.49c-0.21,0-0.49,0-0.56-0.35c-0.07,0.49-0.07,1.26-0.7,1.26
	c-0.14-0.07-0.28-0.28-0.35-0.42c-0.14-0.42,0.07-0.7,0.21-1.12c0.07-0.21,0.07-0.49,0.14-0.7c0-0.21-0.14-0.42-0.28-0.63
	c0-0.07-0.28-0.14-0.42-0.14C147.78,157.56,146.59,157.28,145.47,157.63z M146.87,154.76c-0.14,0-0.07,0.35-0.14,0.56
	c0,0.07,0.14,0.07,0.21,0.07c0.14-0.07,0.07-0.21,0.07-0.28C147.01,154.97,147.01,154.69,146.87,154.76z M146.95,137.98
	c0.09-0.02,0.16-0.24,0.16-0.24l-0.16,0.02C146.95,137.75,146.87,137.99,146.95,137.98z M148.3,132.75c0-0.21-0.31-0.28-0.52-0.14
	c-0.28,0.28-0.35,0.63-0.63,0.84c-0.28,0.28-0.14,0.77-0.42,1.05c-0.07,0.07-0.28-0.07-0.35,0c-0.28,0.49,0.07,0.98,0.21,1.4
	c0,0.07,0.11,0.27,0.21,0.28c0.33,0.03,0.61-0.47,0.72-0.81C147.79,134.54,148.23,133.66,148.3,132.75z M148.48,129.92
	c-0.28-0.35-0.35-0.81-0.91-0.81c-0.07,0-0.07,0.14-0.07,0.21c0.07,0.07,0.19,0.11,0.26,0.18c0.07,0.21-0.12,0.58-0.05,0.65
	c0.63,0.56,0.42,1.02,0.42,1.65c0,0.07,0.21,0.12,0.39,0.02C148.65,131.25,148.85,130.39,148.48,129.92z M151.56,133.59
	c0.14,1.05,0.05,2.14,0.19,3.19c0,0.28,0.51,0.12,0.65,0.05c0.14-0.21,0.1-0.74,0.03-0.95C152.16,135.05,152,133.47,151.56,133.59z
	 M150.67,136.77c0,0.14,0.42,0.28,0.63,0.14c0,0,0.08-0.26,0.07-0.33c-0.07-0.77,0.05-2.33-0.21-2.31
	C150.95,135.03,150.6,135.92,150.67,136.77z M107.41,126.54c0.12-0.14,0.4-0.4,0.23-0.49c-0.16-0.09-0.35-0.09-0.35-0.09
	s-0.23,0.14-0.16,0.28C107.2,126.38,107.29,126.68,107.41,126.54z M107.41,141.72c-0.28,0.42-0.35,0.98-0.07,1.33
	c0.07,0.07,0.27,0,0.35-0.21c0.14-0.35,0.07-0.63,0.07-0.98C107.69,141.72,107.48,141.65,107.41,141.72z M125.07,140.06
	c0,0-0.33-0.02-0.28,0.12c0.05,0.14,0.26,0.23,0.4,0.18C125.33,140.32,125.37,140.04,125.07,140.06z M124.35,139.34
	c0,0-0.19,0.05-0.19,0.16c0,0.12,0.02,0.23,0.12,0.26c0.09,0.02,0.26,0,0.33-0.09C124.67,139.57,124.44,139.34,124.35,139.34z
	 M105.17,139.69c-0.21,0.35-0.07,0.77-0.07,1.12c0.07,0.14,0.21,0.35,0.42,0.28c0.14-0.07,0.09-0.22,0.14-0.35
	c0.14-0.35,0-0.63,0-0.98C105.59,139.55,105.31,139.62,105.17,139.69z M114.49,163.19c0.07-0.28-0.14-0.49-0.21-0.77
	c0-0.07,0.14-0.21,0.21-0.21c0.63,0.07,1.19,0.49,1.89,0.56c0.28,0,0.35,0.35,0.28,0.63c-0.07,0.14-0.28,0.21-0.42,0.14
	c-0.21-0.07-0.28-0.28-0.49-0.42c-0.21-0.07-0.35,0.07-0.35,0.28c0.35-0.07,0.7,0,0.7,0.28c0,0.14-0.21,0.42-0.42,0.56
	c-0.21,0.14-0.35-0.28-0.49-0.21c-0.07,0.14-0.21,0.42,0,0.56c0.42,0.21,1.33-0.56,1.19,0.14c-0.07,0.42-0.7,0.7-1.19,0.49
	c-0.49-0.28-1.12-0.21-1.54-0.56v-0.21c0.14-0.21,0.49-0.21,0.56-0.35C114.28,163.82,114.41,163.5,114.49,163.19 M118.62,164.73
	c-0.07-0.14-0.21-0.28-0.14-0.42c0.14-0.42,0.56-0.7,0.98-0.63c0.07,0,0.07-0.14,0.07-0.21c-0.42-0.28-0.91-0.07-1.19,0.28
	c-0.07,0.07-0.14,0-0.14-0.07c0-0.21-0.07-0.35-0.21-0.35c-0.35-0.14-0.84-0.49-0.98-0.14c-0.14,0.28,0.42,0.49,0.49,0.84
	c0,0.14,0.07,0.28,0,0.35c-0.28,0.35-0.77,0.35-1.05,0.63c-0.35,0.28,0.42,0.56,0.63,0.35c0.21-0.14,0.21-0.63,0.63-0.63
	c0.07,0,0.21,0.14,0.21,0.21c-0.14,0.84,0.84,0.84,1.4,0.77c0-0.07,0-0.14,0.07-0.14c0.42,0.14,0.77,0.42,1.26,0.35
	c0.35-0.14,0.7-0.35,0.98-0.63v-0.28c-0.07-0.14-0.28-0.21-0.35-0.14c-0.21,0.35-0.42,0.7-0.84,0.63c-0.77-0.14-0.49-0.98-0.21-1.47
	c0.14-0.14,0.35-0.21,0.49-0.21c0.21,0.07,0.28,0.35,0.49,0.42c0.07,0,0.28,0.07,0.35-0.07c0.07-0.21,0.07-0.42-0.14-0.56
	c-0.7-0.28-1.47-0.28-1.89,0.35c-0.35,0.42-0.35,0.84-0.28,1.4c0,0.07-0.14,0.07-0.21,0.07
	C118.76,165.29,118.74,164.96,118.62,164.73 M122.9,165.15c0.14,0,0.35,0.14,0.49,0.07c0.21-0.07-0.07-0.42,0.21-0.42
	c-0.07-0.35-0.42-0.21-0.63-0.21c-0.14,0-0.28-0.21-0.21-0.35c0.35-0.28,0.84,0.21,1.19,0c0.07-0.07,0.07-0.28,0-0.35
	c-0.63-0.35-1.33-0.21-1.96-0.14c-0.14,0-0.07,0.21-0.07,0.35c0,0.07,0.14,0.07,0.14,0.14c0,0.35,0.07,0.63,0,0.98
	c-0.07,0.21-0.42,0.49-0.21,0.56c0.49,0.42,1.19,0.28,1.89,0.14c0.21,0,0.42-0.28,0.35-0.56h-0.28c-0.28,0.21-0.56,0.42-0.91,0.35
	C122.69,165.65,122.54,165.15,122.9,165.15 M125.77,165.64c-0.07,0-0.28,0.07-0.35,0c-0.35-0.63-0.07-1.26,0.14-1.82
	c0-0.07-0.21,0-0.21-0.14c-0.35,0.07-0.98-0.07-0.98,0.28c0,0.56,0.35,1.4-0.21,1.82v0.21c0.84,0.14,2.03,0.35,2.52-0.49
	c0.35,0.7,1.26,0.42,1.82,0.14c0.28-0.14,0.49-0.42,0.35-0.84c-0.21-0.35-0.63-0.56-1.05-0.56c-0.14,0-0.14-0.21-0.21-0.28
	c0-0.07,0-0.14,0.07-0.14c0.28-0.07,0.56,0.21,0.84,0.14c0.21-0.07,0.21-0.42,0.07-0.42c-0.49-0.14-0.98-0.14-1.47,0.14
	c-0.21,0.14-0.07,0.49-0.35,0.56c0.21,0.07,0.14,0.42,0.42,0.49c0.35,0.07,0.63,0.14,0.91,0.35c0.07,0.14,0.14,0.28-0.07,0.42
	c-0.42,0.21-0.77,0-1.05-0.28h-0.21c-0.14-0.14-0.21-0.28-0.35-0.21C126.19,165.22,126.09,165.64,125.77,165.64 M130.33,165.08
	c-0.28-0.56,0-1.26-0.14-1.68c-0.14-0.28-0.91-0.14-0.91,0.07c-0.14,0.63,0.07,1.4,0.14,2.1c0,0.28,0.56,0.14,0.84,0.14
	C130.61,165.65,130.47,165.36,130.33,165.08 M132.43,165.15c-0.35,0.14-0.84,0.21-1.26-0.07c-0.58-0.38-0.63-1.12-0.28-1.68
	c0.63-0.84,1.96-0.84,2.31,0.28C133.41,164.31,132.99,164.94,132.43,165.15z M132.36,164.36c-0.07-0.35-0.14-0.7-0.42-0.91h-0.28
	c-0.07,0.07-0.14,0.21-0.07,0.35c0.28,0.35,0.07,0.77,0.42,1.05c0.14,0.07,0.28,0,0.35-0.14
	C132.36,164.57,132.39,164.5,132.36,164.36z M135.86,163.75v0.21c0,0.31-0.35,0.49-0.7,0.42c-0.28-0.07-0.35-0.28-0.56-0.49
	c-0.14-0.07-0.28,0.14-0.21,0.28c0.07,0.07,0.14,0.14,0.21,0.21v0.21c-0.28,0.14-0.7,0.28-0.84,0.14c-0.42-0.28-0.14-0.98-0.42-1.47
	c-0.07-0.14-0.35-0.56-0.07-0.7c0.56-0.14,1.12-0.49,1.68-0.28c0.49,0.21,0.21,0.77,0.21,1.19
	C135.16,163.75,135.58,163.61,135.86,163.75z M134.53,162.89c-0.14-0.21-0.35,0-0.56-0.07c0.07,0.21,0.17,0.81,0.49,0.49
	C134.6,163.17,134.6,163.03,134.53,162.89z"/>
</svg>
