<?xml version="1.0" encoding="utf-8"?>
<!-- Generator: Adobe Illustrator 26.0.3, SVG Export Plug-In . SVG Version: 6.00 Build 0)  -->
<svg version="1.0" id="katman_1" xmlns="http://www.w3.org/2000/svg" xmlns:xlink="http://www.w3.org/1999/xlink" x="0px" y="0px"
	 viewBox="0 0 600 450" style="enable-background:new 0 0 600 450;" xml:space="preserve">
<g>
	<polygon points="148.4,226.3 148.4,275.3 104.7,226.3 82.1,226.3 82.1,226.3 82.1,317.8 107.3,317.8 107.3,268.8 150.4,317.8 
		173.6,317.8 173.6,226.3 	"/>
	<path d="M265,187.9c0-3.3,0-6.7,0-10c0-3,0-6.1,0-9l0,0v0c0-17.5,0-32,0-32l-24.6,0h-0.5v32v19c0,2.2-0.3,4.3-1.1,6.1
		c-0.9,2.3-2.4,4.4-4.4,6.2c-3.9,3.3-9.5,5.3-15,5.3l0,0l0,0c0,0,0,0,0,0c0,0,0,0,0,0l0,0l0,0c-5.6,0-11.2-2-15-5.3
		c-2.1-1.8-3.6-3.8-4.4-6.2c-0.7-1.8-1.1-3.9-1.1-6.1v-19v-32h-0.5l-24.6,0c0,0,0,14.5,0,32v0l0,0c0,2.9,0,6,0,9c0,3.3,0,6.7,0,10
		v6.1l0,0c0,20.2,21.8,36.3,44.6,36.6c0.2,0,0.5,0,0.7,0c0.1,0,0.2,0,0.3,0c0.1,0,0.1,0,0.2,0l0,0c0,0,0,0,0,0c0,0,0,0,0,0
		c0,0,0,0,0,0l0,0c0,0,0.1,0,0.1,0c0.1,0,0.2,0,0.3,0c0.2,0,0.5,0,0.7,0c22.7-0.3,44.6-15.9,44.6-36.6l0,0V187.9z"/>
	<path d="M146.2,194c-4.1,6.8-11.3,11.3-19.6,11.4c-0.1,0-0.2,0-0.3,0c-12.9,0-23.4-10.7-23.4-24c0-13.2,10.5-24,23.4-24
		c0.1,0,0.2,0,0.3,0c8.3,0.1,15.5,4.7,19.6,11.4h27.4c0-20.6-21.7-36.2-44.4-36.6c-0.1,0-0.1,0-0.2,0c-0.2,0-0.5,0-0.7,0
		c-0.1,0-0.2,0-0.3,0c0,0-0.1,0-0.1,0l0,0c0,0,0,0,0,0c0,0,0,0,0,0c0,0,0,0,0,0l0,0c-0.1,0-0.1,0-0.2,0c-0.1,0-0.2,0-0.3,0
		c-0.2,0-0.5,0-0.7,0h-1.8c-18,0-33.7,9.7-42.3,24.1c-4.4,7.3-6.9,15.9-6.9,25.1l0,0c0,0,0,0,0,0s0,0,0,0l0,0
		c0,9.2,2.5,17.7,6.9,25.1c8.6,14.4,24.3,24.1,42.3,24.1h1.8c0.2,0,0.5,0,0.7,0c0.1,0,0.2,0,0.3,0c0.1,0,0.1,0,0.2,0l0,0
		c0,0,0,0,0,0c0,0,0,0,0,0c0,0,0,0,0,0l0,0c0,0,0.1,0,0.1,0c0.1,0,0.2,0,0.3,0c0.2,0,0.5,0,0.7,0c0.1,0,0.1,0,0.2,0
		c22.7-0.4,44.4-16,44.4-36.6L146.2,194L146.2,194z"/>
	<polygon points="239.9,226.3 219.3,268.3 198.7,226.3 173.6,226.3 206.7,293.9 206.7,317.8 231.9,317.8 231.9,293.9 265.1,226.3 	
		"/>
	<g>
		<path d="M288.2,177.5v-34.6h-8.4v-6.1h23.5v6.1h-8.4v34.6H288.2z"/>
		<path d="M326,177.5v-18h-11.6v18h-6.7v-40.7h6.7v16.6H326v-16.6h6.6v40.7H326z"/>
		<path d="M337.7,177.5v-40.7h20.8v6.1h-14.1v10.6h10.5v5.9h-10.5v12h14.8v6.1L337.7,177.5L337.7,177.5z"/>
		<path d="M398.5,164.2c-0.6,4.6-1.9,8-3.9,10.3c-2,2.3-4.8,3.5-8.6,3.5c-2.5,0-4.5-0.5-6.1-1.4c-1.6-1-3-2.4-4-4.2
			c-1-1.8-1.7-4-2.2-6.6c-0.4-2.6-0.7-5.5-0.7-8.8c0-2.9,0.2-5.7,0.7-8.2c0.5-2.5,1.2-4.7,2.2-6.5c1-1.9,2.4-3.3,4-4.4
			c1.7-1.1,3.7-1.6,6.1-1.6c2,0,3.6,0.3,5,0.9c1.4,0.6,2.6,1.4,3.5,2.6s1.7,2.5,2.2,4.1c0.5,1.6,1,3.5,1.2,5.6l-6.2,0.6
			c-0.8-5.1-2.7-7.7-5.6-7.7c-2.1,0-3.6,1.2-4.7,3.5c-1.1,2.3-1.6,6-1.6,11.2c0,2.8,0.1,5.2,0.4,7.1c0.2,1.9,0.6,3.5,1.1,4.6
			c0.5,1.2,1.2,2,1.9,2.5c0.8,0.5,1.7,0.8,2.8,0.8c3.1,0,5.1-2.8,6-8.4L398.5,164.2z"/>
		<path d="M402.7,177.5v-40.7h6.7v40.7H402.7z"/>
		<path d="M422.2,177.5v-34.6h-8.4v-6.1h23.5v6.1h-8.4v34.6H422.2z"/>
		<path d="M449.7,177.5v-16.4l-10-24.3h7.1l6.2,16.5h0.1l6.5-16.5h7l-10.2,24.3v16.4H449.7z"/>
		<path d="M298.2,183.6h6.6v27.7c0,4.4-1,7.8-3,10c-2,2.3-5.2,3.4-9.6,3.4c-4.4,0-7.5-1.1-9.4-3.4c-1.9-2.3-2.8-5.6-2.8-10v-27.7
			h6.7v28.6c0,2.4,0.5,4.1,1.4,5.2c0.9,1.1,2.3,1.6,4.3,1.6c1.9,0,3.4-0.5,4.4-1.6c1-1.1,1.5-2.8,1.5-5.2L298.2,183.6L298.2,183.6z"
			/>
		<path d="M328.7,224.3l-13-28.1h-0.1v28.1h-6v-40.7h7.8l11.2,24.7h0.1v-24.7h6.1v40.7L328.7,224.3L328.7,224.3z"/>
		<path d="M339.7,224.3v-40.7h6.7v40.7L339.7,224.3L339.7,224.3z"/>
		<path d="M359.6,224.3l-9.8-40.7h7.1l6.3,29.8h0.1l6.6-29.8h7.1l-9.9,40.7H359.6z"/>
		<path d="M380.4,224.3v-40.7h20.8v6.1h-14.1v10.6h10.5v5.9h-10.5v12h14.8v6.1H380.4L380.4,224.3z"/>
		<path d="M423.6,224.3l-5.8-16.8h-5.2v16.8h-6.7v-40.7h10.8c4.3,0,7.6,0.9,9.7,2.7c2.1,1.8,3.2,4.6,3.2,8.6c0,2.6-0.5,4.7-1.5,6.3
			c-1,1.6-2.4,2.8-4.2,3.6l7.1,19.5H423.6z M416.4,201.8c0.8,0,1.5-0.1,2.3-0.3c0.8-0.2,1.4-0.5,2-0.9c0.6-0.5,1.1-1.1,1.4-1.9
			c0.4-0.8,0.5-1.9,0.5-3.2c0-1.4-0.2-2.6-0.6-3.4c-0.4-0.8-0.9-1.4-1.4-1.8c-0.6-0.4-1.3-0.6-2-0.7c-0.8-0.1-1.5-0.1-2.3-0.1h-3.8
			v12.4L416.4,201.8L416.4,201.8z"/>
		<path d="M450.6,194.4c-0.4-1.7-1-3.1-1.9-4.1c-0.8-1-2-1.5-3.6-1.5c-1.4,0-2.6,0.4-3.4,1.1c-0.8,0.7-1.2,1.8-1.2,3.1
			c0,1.4,0.4,2.6,1.2,3.6c0.8,0.9,1.9,1.8,3.1,2.6c1.2,0.8,2.6,1.6,4,2.4c1.4,0.8,2.8,1.7,4,2.8c1.2,1.1,2.3,2.4,3.1,3.9
			c0.8,1.5,1.2,3.4,1.2,5.6c0,3.6-1.1,6.3-3.2,8.2c-2.1,1.9-5,2.9-8.7,2.9c-3.6,0-6.4-0.9-8.2-2.7c-1.9-1.8-3.1-4.5-3.7-8.2l6.2-1.1
			c0.4,2.1,1.1,3.6,1.9,4.7c0.9,1,2.2,1.6,4,1.6c1.5,0,2.8-0.4,3.7-1.2c0.9-0.8,1.4-2,1.4-3.6c0-1.5-0.4-2.7-1.2-3.7
			c-0.8-1-1.8-1.9-3.1-2.8c-1.2-0.8-2.6-1.6-4-2.4c-1.4-0.8-2.7-1.7-4-2.7c-1.2-1.1-2.2-2.3-3.1-3.8c-0.8-1.5-1.2-3.3-1.2-5.5
			c0-3.2,1-5.7,2.9-7.5c1.9-1.8,4.6-2.7,8-2.7c1.8,0,3.3,0.2,4.6,0.7c1.3,0.5,2.4,1.2,3.3,2c0.9,0.9,1.6,2,2.2,3.2
			c0.5,1.2,1,2.6,1.3,4.2L450.6,194.4z"/>
		<path d="M460.5,224.3v-40.7h6.7v40.7L460.5,224.3L460.5,224.3z"/>
		<path d="M480.1,224.3v-34.6h-8.4v-6.1h23.5v6.1h-8.4v34.6H480.1z"/>
		<path d="M507.6,224.3v-16.4l-10-24.3h7.1l6.2,16.5h0.1l6.5-16.5h7l-10.2,24.3v16.4L507.6,224.3L507.6,224.3z"/>
		<path d="M293.3,271.6c-4.7,0-8.1-1.8-10.2-5.4c-2.1-3.6-3.2-8.8-3.2-15.4c0-3.4,0.3-6.3,0.8-9c0.5-2.6,1.3-4.8,2.4-6.5
			c1.1-1.8,2.5-3.1,4.2-4c1.7-0.9,3.7-1.4,6.1-1.4c4.8,0,8.2,1.8,10.3,5.4c2.1,3.6,3.2,8.7,3.2,15.5c0,6.7-1.1,11.8-3.2,15.4
			C301.4,269.8,298,271.6,293.3,271.6z M293.3,265.9c1.1,0,2-0.3,2.8-0.8c0.8-0.5,1.5-1.4,2.1-2.6c0.6-1.2,1-2.7,1.3-4.6
			s0.4-4.2,0.4-7c0-5.3-0.6-9.1-1.7-11.5c-1.1-2.4-2.8-3.5-5-3.5c-2.2,0-3.8,1.2-4.9,3.5c-1.1,2.4-1.6,6.2-1.6,11.5
			c0,2.8,0.1,5.1,0.4,7c0.3,1.9,0.7,3.5,1.3,4.6c0.6,1.2,1.3,2.1,2.1,2.6C291.3,265.6,292.3,265.9,293.3,265.9z"/>
		<path d="M311.1,271.1v-40.7h21.1v6.1h-14.4v10.6h10.7v5.9h-10.7v18.1L311.1,271.1L311.1,271.1z"/>
		<path d="M299.1,317.9l-13-28.1H286v28.1h-6v-40.7h7.8l11.2,24.7h0.1v-24.7h6.1v40.7L299.1,317.9L299.1,317.9z"/>
		<path d="M309.7,317.9v-40.7h20.8v6.1h-14.1V294H327v5.9h-10.5v12h14.8v6.1L309.7,317.9L309.7,317.9z"/>
		<path d="M358.1,317.9l-4.6-27.7h-0.1l-4.4,27.7h-6.8l-8.2-40.7h6.7l4.8,27.9h0.1l4.6-27.9h6.6l4.6,27.8h0.1l4.8-27.8h6.6
			l-8.1,40.7H358.1z"/>
		<path d="M393.7,317.9v-16.4l-10-24.3h7.1l6.2,16.5h0.1l6.5-16.5h7l-10.2,24.3v16.4H393.7z"/>
		<path d="M423.8,318.4c-4.7,0-8.1-1.8-10.2-5.4s-3.2-8.8-3.2-15.4c0-3.4,0.3-6.3,0.8-9s1.3-4.8,2.4-6.5c1.1-1.8,2.5-3.1,4.2-4
			c1.7-0.9,3.7-1.4,6.1-1.4c4.8,0,8.2,1.8,10.3,5.4c2.1,3.6,3.2,8.7,3.2,15.5c0,6.7-1.1,11.8-3.2,15.4
			C431.9,316.6,428.4,318.4,423.8,318.4z M423.8,312.7c1.1,0,2-0.3,2.8-0.8c0.8-0.5,1.5-1.4,2.1-2.6c0.6-1.2,1-2.7,1.3-4.6
			c0.3-1.9,0.4-4.2,0.4-7c0-5.3-0.6-9.1-1.7-11.5c-1.1-2.4-2.8-3.5-5-3.5c-2.2,0-3.8,1.2-4.9,3.5c-1.1,2.4-1.6,6.2-1.6,11.5
			c0,2.8,0.1,5.1,0.4,7c0.3,1.9,0.7,3.5,1.3,4.6c0.6,1.2,1.3,2.1,2.1,2.6C421.8,312.4,422.7,312.7,423.8,312.7z"/>
		<path d="M459.1,317.9l-5.8-16.8h-5.2v16.8h-6.7v-40.7h10.8c4.3,0,7.6,0.9,9.7,2.7c2.1,1.8,3.2,4.6,3.2,8.6c0,2.6-0.5,4.7-1.5,6.3
			c-1,1.6-2.4,2.8-4.2,3.6l7.1,19.5L459.1,317.9L459.1,317.9z M452,295.4c0.8,0,1.5-0.1,2.3-0.3c0.8-0.2,1.4-0.5,2-0.9
			c0.6-0.5,1.1-1.1,1.4-1.9c0.4-0.8,0.5-1.9,0.5-3.2c0-1.4-0.2-2.6-0.6-3.4c-0.4-0.8-0.9-1.4-1.4-1.8c-0.6-0.4-1.3-0.6-2-0.7
			c-0.8-0.1-1.5-0.1-2.3-0.1h-3.8v12.4L452,295.4L452,295.4z"/>
		<path d="M488.4,317.9l-7.7-19.2l-4.1,6.3v12.8h-6.6v-40.7h6.6v17.7h0.1l10.7-17.7h7.1l-9.1,14.8l10.3,25.8L488.4,317.9
			L488.4,317.9z"/>
	</g>
</g>
</svg>
